<?xml version="1.0" standalone="no"?>
<!DOCTYPE svg PUBLIC "-//W3C//DTD SVG 1.1//EN" "http://www.w3.org/Graphics/SVG/1.1/DTD/svg11.dtd" >
<svg xmlns="http://www.w3.org/2000/svg">
<metadata>
Created by FontForge 20120731 at Mon Mar  7 14:11:00 2016
 By Ads
</metadata>
<defs>
<font id="iconfont" horiz-adv-x="1024" >
  <font-face 
    font-family="iconfont"
    font-weight="500"
    font-stretch="normal"
    units-per-em="1024"
    panose-1="2 0 6 3 0 0 0 0 0 0"
    ascent="896"
    descent="-128"
    x-height="792"
    bbox="-1 -128 1344 897.191"
    underline-thickness="50"
    underline-position="-100"
    unicode-range="U+0078-E9A9"
  />
<missing-glyph horiz-adv-x="374" 
d="M34 0v682h272v-682h-272zM68 34h204v614h-204v-614z" />
    <glyph glyph-name=".notdef" horiz-adv-x="374" 
d="M34 0v682h272v-682h-272zM68 34h204v614h-204v-614z" />
    <glyph glyph-name=".null" horiz-adv-x="0" 
 />
    <glyph glyph-name="nonmarkingreturn" horiz-adv-x="341" 
 />
    <glyph glyph-name="x" unicode="x" horiz-adv-x="1001" 
d="M281 543q-27 -1 -53 -1h-83q-18 0 -36.5 -6t-32.5 -18.5t-23 -32t-9 -45.5v-76h912v41q0 16 -0.5 30t-0.5 18q0 13 -5 29t-17 29.5t-31.5 22.5t-49.5 9h-133v-97h-438v97zM955 310v-52q0 -23 0.5 -52t0.5 -58t-10.5 -47.5t-26 -30t-33 -16t-31.5 -4.5q-14 -1 -29.5 -0.5
t-29.5 0.5h-32l-45 128h-439l-44 -128h-29h-34q-20 0 -45 1q-25 0 -41 9.5t-25.5 23t-13.5 29.5t-4 30v167h911zM163 247q-12 0 -21 -8.5t-9 -21.5t9 -21.5t21 -8.5q13 0 22 8.5t9 21.5t-9 21.5t-22 8.5zM316 123q-8 -26 -14 -48q-5 -19 -10.5 -37t-7.5 -25t-3 -15t1 -14.5
t9.5 -10.5t21.5 -4h37h67h81h80h64h36q23 0 34 12t2 38q-5 13 -9.5 30.5t-9.5 34.5q-5 19 -11 39h-368zM336 498v228q0 11 2.5 23t10 21.5t20.5 15.5t34 6h188q31 0 51.5 -14.5t20.5 -52.5v-227h-327z" />
    <glyph glyph-name="uniE600" unicode="&#xe600;" 
d="M853 -128q-53 0 -90.5 37.5t-37.5 90.5v704q0 9 -3 16.5t-9 13.5t-14 9.5t-16 3.5h-22v42h22q23 0 42.5 -11.5t31 -31t11.5 -42.5v-704q0 -23 11.5 -42.5t31 -31t42.5 -11.5q36 0 61 25t25 60v320h42v-320q0 -53 -37.5 -90.5t-90.5 -37.5zM960 299q-26 0 -45 18.5
t-19 45.5v128q0 17 8.5 32t23.5 23.5t32 8.5t32 -8.5t23.5 -23.5t8.5 -32v-128q0 -27 -19 -45.5t-45 -18.5zM960 512q-2 0 -4.5 -0.5t-4.5 -1.5t-4 -2.5t-3.5 -3.5t-2.5 -4t-1.5 -4.5t-0.5 -4.5v-128q0 -9 6 -15.5t15 -6.5q3 0 6.5 1t6 3t4.5 5t3 6t1 7v128q0 8 -6 14.5
t-15 6.5zM939 341h-43q-35 0 -60 25t-25 60.5t25 60.5t60 25h43v-171zM896 469q-18 0 -30.5 -12.5t-12.5 -29.5q0 -12 6 -22t15.5 -15.5t21.5 -5.5v85zM576 -128h-469q-44 0 -75.5 31.5t-31.5 75.5v810q0 44 31.5 75.5t75.5 31.5h469q44 0 75.5 -31.5t31.5 -75.5v-810
q0 -44 -31.5 -75.5t-75.5 -31.5zM107 853q-27 0 -45.5 -18.5t-18.5 -45.5v-810q0 -27 18.5 -45.5t45.5 -18.5h469q26 0 45 18.5t19 45.5v810q0 18 -8.5 32.5t-23.5 23t-32 8.5h-469zM661 683h-640q-9 0 -15 6t-6 15t6 15t15 6h640q9 0 15.5 -6t6.5 -15q0 -6 -3 -11t-8 -7.5
t-11 -2.5zM661 43h-640q-9 0 -15 6t-6 15q0 6 3 11t8 7.5t10 2.5h640q9 0 15.5 -6t6.5 -15q0 -4 -2 -8t-4.5 -7t-6.5 -4.5t-9 -1.5zM341 21q-17 0 -29.5 -12.5t-12.5 -29.5q0 -9 3 -17t9 -13.5t14 -9t16 -3.5q18 0 30.5 12.5t12.5 30.5q0 29 -27 39q-8 3 -16 3zM341 811
q-9 0 -15 -6.5t-6 -15.5q0 -3 1 -5l2 -6q1 -2 3 -4t4 -3l6 -2q2 -1 5 -1q9 0 15.5 6t6.5 15q0 6 -3 11t-8 8t-11 3z" />
    <glyph glyph-name="uniE601" unicode="&#xe601;" 
d="M619 -128h-214q-23 0 -42.5 11.5t-31 31t-11.5 42.5q0 18 15.5 56t28 61.5t23.5 42.5q2 3 4.5 5.5t6 4t7.5 1.5h4q2 0 4 -1l4 -2q2 -1 3.5 -3t2.5 -3l24 -36l47 77q5 10 18 10t18 -10l47 -77l24 36q7 10 18 9q3 0 6 -1t5 -3l4 -2q2 -2 3 -5q8 -13 16 -29t21 -42.5
t21.5 -50.5t8.5 -38q0 -23 -11.5 -42.5t-31 -31t-42.5 -11.5zM407 65q-44 -85 -44 -108q0 -11 5.5 -21t15.5 -15.5t21 -5.5h214q11 0 21 5.5t15.5 15.5t5.5 21q0 23 -44 108l-23 -34q-6 -9 -18 -10q-2 0 -4 0.5t-3.5 1t-2.5 1.5l-4 2q-1 1 -2 2.5t-2 3.5l-46 76l-46 -76
q-2 -3 -4.5 -5.5t-6 -4t-7.5 -1.5q-12 1 -18 10zM747 213h-470q-44 0 -75 31.5t-31 75.5v469q0 9 6 15.5t15 6.5h640q9 0 15 -6.5t6 -15.5v-469q0 -29 -14 -53.5t-38.5 -39t-53.5 -14.5zM213 768v-448q0 -26 19 -45t45 -19h470q26 0 45 19t19 45v448h-598zM192 640h-85
q-6 0 -11 3t-8 8t-3 10.5t3 10.5t8 8t11 3h85q9 0 15 -6.5t6 -15.5q0 -5 -2.5 -10t-7.5 -8t-11 -3zM917 654h-85q-9 0 -15 6.5t-6 15.5q0 5 2.5 10t7.5 8t11 3h85q9 0 15.5 -6.5t6.5 -14.5q0 -6 -3 -11t-8 -8t-11 -3zM875 768h-726q-9 0 -15 6t-6 15q0 5 1.5 9t4.5 6.5
t7 4.5t8 2h726q9 0 15 -6.5t6 -15.5q0 -4 -1.5 -8t-4.5 -7t-7 -4.5t-8 -1.5zM597 768q-9 0 -15 6t-6 15q0 18 -8.5 32.5t-23.5 23t-32 8.5t-32 -8.5t-23.5 -23t-8.5 -32.5q0 -9 -6 -15t-15 -6t-15.5 6t-6.5 15q0 44 31.5 75.5t75.5 31.5q29 0 53.5 -14.5t39 -39t14.5 -53.5
q0 -9 -6.5 -15t-15.5 -6z" />
    <glyph glyph-name="uniE602" unicode="&#xe602;" horiz-adv-x="1028" 
d="M1006 -43h-981q-9 0 -15 6.5t-6 15.5v298q0 13 5 25t13.5 20.5t20.5 13.5t25 5h42q9 0 15.5 -6t6.5 -15q0 -7 16 -17t47 -18t65 -8q41 0 71.5 7.5t43.5 17t13 18.5q0 5 2.5 9.5t6.5 7.5q9 7 19 3l569 -203q13 -5 22.5 -14t15 -21t5.5 -25v-98q0 -9 -6.5 -15.5t-15.5 -6.5
zM46 0h939v77q0 15 -14 20l-548 195q-10 -18 -32.5 -30.5t-56 -19.5t-74.5 -7q-55 0 -103 17.5t-63 46.5h-26q-9 0 -15.5 -6.5t-6.5 -15.5v-277zM25 85h981v-42h-981v42zM473 213q-3 0 -5.5 1t-5 2.5t-4.5 3.5q-4 4 -5.5 9.5t0 11t5.5 9.5l46 46q6 6 15 6t15 -6t6 -15
t-6 -15l-46 -46q-2 -2 -4.5 -3.5t-5 -2.5t-5.5 -1zM558 192q-2 0 -5 0.5t-5.5 2t-4.5 3.5q-4 4 -5.5 9.5t0 11t5.5 9.5l40 40q6 6 15 6t15 -6q12 -16 0 -30l-40 -40q-6 -6 -15 -6zM537 64h-43v21q0 23 11.5 43t31.5 31.5t43 11.5h128q5 0 10 4t8 10.5t3 12.5h43
q0 -8 -2.5 -16.5t-6 -16.5t-9.5 -14.5t-13 -11.5t-15.5 -8t-17.5 -3h-128q-12 0 -22 -5.5t-15.5 -15.5t-5.5 -22v-21zM153 43q-9 0 -15 6t-6 15q0 44 -31.5 75.5t-75.5 31.5q-9 0 -15 6t-6 15q0 6 2.5 11t7.5 7.5t11 2.5q62 0 105.5 -43.5t43.5 -105.5q-4 -18 -21 -21z
M622 427q-3 0 -7 1l-569 203q-19 7 -30.5 23.5t-11.5 36.5v98q0 9 6 15.5t15 6.5h981q6 0 11 -3t8 -8t3 -11v-298q0 -13 -5 -25t-14 -20.5t-20.5 -13.5t-24.5 -5h-43q-9 0 -15 6t-6 15q0 4 -6.5 9.5t-18 11.5t-27 11t-35.5 8t-41 3q-41 0 -71.5 -7.5t-43.5 -17t-13 -18.5
q0 -5 -2.5 -9.5t-6.5 -7.5q-3 -2 -6 -3t-7 -1zM937 469h27q9 0 15 6.5t6 15.5v277h-939v-77q0 -4 2 -8t5 -7t8 -5l547 -195q15 27 58 42t106 15q55 0 103 -17.5t62 -46.5zM25 725h981v-42h-981v42zM512.5 466q-8.5 0 -15 6t-6.5 15t6 15l46 46q7 7 15.5 7t15 -6.5t6.5 -15
t-6 -15.5l-46 -46q-7 -6 -15.5 -6zM434 494q-9 0 -15.5 6.5t-6.5 15t7 14.5l39 40q6 6 15 6t15 -6.5t6 -15t-6 -14.5l-39 -40q-2 -1 -3.5 -2.5t-3.5 -1.5l-4 -2h-4zM302 570h-42q0 26 18.5 48t45.5 22h128q11 0 21 5.5t15.5 15.5t5.5 22v21h43v-21q0 -36 -25 -61t-60 -25
h-128q-8 0 -15 -8.5t-7 -18.5zM1006 555q-61 0 -105 43.5t-44 105.5q0 6 3 11t8 7.5t10 2.5q9 0 15.5 -6t6.5 -15q0 -44 31 -75.5t75 -31.5q3 0 6 -0.5t5.5 -2t4 -3.5t3 -4.5t2.5 -5t1 -5.5q0 -6 -3 -11t-8 -7.5t-11 -2.5z" />
    <glyph glyph-name="uniE603" unicode="&#xe603;" 
d="M832 -128h-640q-29 0 -53.5 14.5t-39 39t-14.5 53.5v810q0 44 31.5 75.5t75.5 31.5h640q44 0 75.5 -31.5t31.5 -75.5v-810q0 -44 -31.5 -75.5t-75.5 -31.5zM192 853q-26 0 -45 -18.5t-19 -45.5v-810q0 -27 19 -45.5t45 -18.5h640q26 0 45 18.5t19 45.5v810
q0 18 -8.5 32.5t-23.5 23t-32 8.5h-640zM516 21q-12 0 -22 -5.5t-15.5 -15.5t-5.5 -21q0 -18 12.5 -30.5t30.5 -12.5q8 0 16 3.5t13.5 9t9 13.5t3.5 17q0 29 -27 39q-8 3 -15 3zM832 43h-640q-9 0 -15 6t-6 15v683q0 5 2.5 10t7.5 8t11 3h640q9 0 15 -6.5t6 -14.5v-683
q0 -9 -6 -15t-15 -6zM213 85h598v640h-598v-640zM516 832q-5 0 -9 -1.5t-6.5 -4.5t-4.5 -7t-2 -8q0 -6 3 -11t8 -8t11 -3q8 0 14.5 6.5t6.5 15.5q0 4 -1.5 8t-4.5 7t-7 4.5t-8 1.5z" />
    <glyph glyph-name="uniE604" unicode="&#xe604;" 
d="M747 -128h-470q-44 0 -75 31.5t-31 75.5v810q0 44 31 75.5t75 31.5h470q44 0 75 -31.5t31 -75.5v-810q0 -44 -31 -75.5t-75 -31.5zM277 853q-17 0 -32 -8.5t-23.5 -23t-8.5 -32.5v-810q0 -27 19 -45.5t45 -18.5h470q8 0 16.5 2t15.5 6.5t13 10t10 12.5t6.5 15.5t2.5 17.5
v810q0 18 -8.5 32.5t-23.5 23t-32 8.5h-470zM747 427h-470q-8 0 -14.5 6t-6.5 15v341q0 9 6.5 15.5t14.5 6.5h470q8 0 14.5 -6.5t6.5 -15.5v-341q0 -3 -1 -6.5t-3 -6t-4.5 -4.5t-6 -3t-6.5 -1zM299 469h426v299h-426v-299zM512 -43q-88 0 -150.5 62.5t-62.5 151.5
q0 43 17 82.5t45.5 68t68 45.5t82.5 17q88 0 150.5 -62.5t62.5 -150.5q0 -58 -28.5 -107t-77.5 -78t-107 -29zM512 341q-46 0 -85.5 -22.5t-62.5 -62t-23 -85.5q0 -71 50 -121t121 -50t121 50t50 120.5t-50 120.5t-121 50zM512 43q-53 0 -90.5 37.5t-37.5 90.5t37.5 90.5
t90.5 37.5t90.5 -37.5t37.5 -90.5q0 -35 -17 -64.5t-46.5 -46.5t-64.5 -17zM512 256q-35 0 -60 -25t-25 -60.5t25 -60.5t60 -25t60 25t25 61q0 23 -11.5 42.5t-31 31t-42.5 11.5z" />
    <glyph glyph-name="uniE605" unicode="&#xe605;" 
d="M533 -128h-384q-44 0 -75 31.5t-31 75.5v512h42v-512q0 -27 19 -45.5t45 -18.5h384q27 0 45.5 18.5t18.5 45.5v512h43v-512q0 -44 -31.5 -75.5t-75.5 -31.5zM576 427h-469q-27 0 -45.5 18.5t-18.5 45t18.5 45.5t45.5 19h469q17 0 32 -8.5t23.5 -23.5t8.5 -32
q0 -27 -19 -45.5t-45 -18.5zM107 512q-9 0 -15.5 -6.5t-6.5 -15t6.5 -15t15.5 -6.5h469q9 0 15 6.5t6 15t-6 15t-15 6.5h-469zM341 -43q-88 0 -150.5 62.5t-62.5 151t62.5 151t150.5 62.5q35 0 67.5 -11t59 -30.5t46 -46t30.5 -59t11 -66.5q0 -29 -8 -57t-21.5 -51
t-33.5 -43t-43 -33.5t-51 -21.5t-57 -8zM341 341q-34 0 -66 -13.5t-54.5 -36t-36 -54.5t-13.5 -66q0 -71 50 -121t120.5 -50t120.5 50t50 121q0 23 -6 45t-17 40.5t-27 34.5t-34.5 27t-41 17t-45.5 6zM341 43q-53 0 -90.5 37.5t-37.5 90.5t37.5 90.5t90.5 37.5t90.5 -37.5
t37.5 -90.5q0 -12 -2 -23.5t-6 -21.5t-9.5 -19.5t-12.5 -18t-15.5 -15.5t-18 -12.5t-19.5 -9.5t-21.5 -6t-23.5 -2zM341 256q-23 0 -42.5 -11.5t-31 -31t-11.5 -42.5q0 -36 25 -61t60.5 -25t60.5 25t25 60.5t-25 60.5t-61 25zM491 725h-171v128h171v-128zM363 768h85v43h-85
v-43zM256 683q-44 0 -75.5 31t-31.5 75t31.5 75.5t75.5 31.5q22 0 41.5 -8.5t34 -23t23 -34t8.5 -41.5q0 -44 -31.5 -75t-75.5 -31zM256 853q-26 0 -45 -18.5t-19 -45t19 -45.5t45 -19q17 0 32 8.5t23.5 23.5t8.5 32.5t-8.5 32t-23.5 23t-32 8.5zM853 -128q-53 0 -90.5 37.5
t-37.5 90.5v341q0 12 -5.5 22t-15.5 15.5t-21 5.5h-64v43h64q35 0 60 -25t25 -61v-341q0 -14 4.5 -27t12 -23.5t18 -18.5t23.5 -12t27 -4q36 0 61 25t25 60v661q0 44 -31.5 75.5t-75.5 31.5h-363v43h363q62 0 105.5 -44t43.5 -106v-661q0 -35 -17 -64.5t-46.5 -46.5
t-64.5 -17zM256 811q-9 0 -15 -6.5t-6 -15.5q0 -5 2.5 -10t7.5 -8t11 -3h4l4 2q2 0 4 1.5t3.5 3t2.5 3t2 3.5v4q1 2 1 4q0 6 -2.5 11t-7.5 8t-11 3z" />
    <glyph glyph-name="uniE606" unicode="&#xe606;" 
d="M533 -128h-426q-44 0 -75.5 31.5t-31.5 75.5v128q0 8 6.5 14.5t14.5 6.5q5 0 9 -1.5t6.5 -4.5t4.5 -7t2 -8q0 -27 18.5 -45.5t45.5 -18.5h426q27 0 45.5 18.5t18.5 45.5q0 5 3 10t8 8t11 3q8 0 14.5 -6.5t6.5 -14.5v-128q0 -44 -31.5 -75.5t-75.5 -31.5zM43 21v-42
q0 -18 8.5 -32.5t23 -23t32.5 -8.5h426q9 0 17.5 2t15.5 6.5t12.5 10t10 12.5t6.5 15.5t2 17.5v42q-13 -10 -29.5 -15.5t-34.5 -5.5h-426q-36 0 -64 21zM853 -128q-126 0 -164 38q-3 3 -4.5 7t-1.5 8v875q0 3 0.5 5.5t2 5t3.5 4.5q12 12 35.5 20.5t50 12t44.5 4.5t34 1
q126 0 165 -38q6 -6 6 -15v-875q-1 -9 -6 -15q-39 -38 -165 -38zM725 -64q36 -21 128 -21t128 21v854q-15 9 -49 15t-79 6q-92 0 -128 -21v-854zM602 94l-93 123q-13 18 -34 28.5t-44 10.5h-222q-49 0 -78 -39l-93 -123l-34 25l92 123q14 18 31.5 30.5t38.5 19.5t43 7h222
q33 0 63 -15t50 -42l92 -123zM853 523q-44 0 -75 31t-31 75q0 29 14 53.5t38.5 39t53.5 14.5t53.5 -14.5t39 -39t14.5 -53.5t-14.5 -53.5t-39 -38.5t-53.5 -14zM853 693q-17 0 -32 -8.5t-23.5 -23t-8.5 -32t8.5 -32.5t23.5 -23.5t32.5 -8.5t32 8.5t23 23.5t8.5 32
q0 27 -18.5 45.5t-45.5 18.5zM789 501q-17 0 -29.5 -12.5t-12.5 -29.5q0 -12 5.5 -22t15.5 -15.5t21 -5.5q18 0 30.5 12.5t12.5 30t-12.5 30t-30.5 12.5zM917 501q-17 0 -29.5 -12.5t-12.5 -29.5q0 -12 5.5 -22t15.5 -15.5t21 -5.5q9 0 17 3.5t13.5 9t9 13.5t3.5 17
q0 17 -12.5 29.5t-30.5 12.5z" />
    <glyph glyph-name="uniE607" unicode="&#xe607;" 
d="M906 -128q-10 0 -17 8l-116 150l-5 13v194q0 36 -17.5 58.5t-69.5 65.5q-22 18 -33 28q-7 6 -7.5 14.5t5 15.5t14.5 7.5t16 -4.5q13 -12 33 -28q29 -24 42.5 -36.5t30.5 -33t23 -41t6 -46.5v-187l112 -144q5 -7 4 -15.5t-8 -13.5q-6 -5 -13 -5zM665 -128q-5 0 -9.5 2.5
t-8.5 6.5l-21 31q-14 19 -21 41t-7 45v59l-91 132q-19 20 -18.5 47t19.5 46q5 5 10.5 8.5t11.5 6t12.5 3.5t12.5 1t12.5 -1t12.5 -3.5t11.5 -6t10.5 -8.5l118 -118q6 -6 6 -14.5t-6.5 -15t-15 -6.5t-15.5 6l-117 118q-7 7 -17 7t-17 -7q-4 -5 -6 -11t0 -12.5t6 -10.5l3 -3
l96 -139l3 -12v-66q0 -16 5.5 -32t14.5 -30l22 -30q5 -7 3.5 -16t-8.5 -14q-3 -2 -6 -3t-6 -1zM619 -43h-320q-35 0 -60 25t-25 61v469q0 35 25 60t60 25h299q23 0 42.5 -11.5t31 -31t11.5 -42.5v-320h-43v320q0 18 -12.5 30.5t-29.5 12.5h-299q-11 0 -21 -6t-16 -15.5
t-6 -21.5v-469q0 -18 12.5 -30.5t30.5 -12.5h320v-43zM569 633q-24 24 -55 37t-66 13q-70 0 -120 -50l-30 30q15 15 32.5 26.5t36.5 19.5t39.5 12t41.5 4q43 0 82 -16t69 -46zM629 693q-21 21 -46 36.5t-51.5 24.5t-55 12.5t-56.5 0t-54.5 -12.5t-51.5 -24.5t-47 -36.5
l-30 30q88 88 211.5 88t211.5 -88zM690 753q-39 40 -88 64.5t-101.5 32t-104.5 0t-101 -32t-88 -64.5l-30 31q74 73 172.5 99.5t197.5 0t173 -99.5zM363 469q-9 0 -15 -6t-6 -15t6 -15t15 -6t15 6t6 15t-6 15t-15 6zM448 469q-8 0 -14.5 -6t-6.5 -15t6.5 -15t15 -6t15 6
t6.5 15t-6.5 15t-15.5 6zM534 469q-9 0 -15.5 -6t-6.5 -15t6.5 -15t15.5 -6t15 6t6 15t-6 15t-15 6zM363 384q-9 0 -15 -6t-6 -15t6 -15.5t15 -6.5t15 6.5t6 15.5t-6 15t-15 6zM448 384q-8 0 -14.5 -6t-6.5 -15t6.5 -15.5t15 -6.5t15 6.5t6.5 15.5t-6.5 15t-15.5 6zM363 299
q-9 0 -15 -6.5t-6 -15t6 -15t15 -6.5t15 6.5t6 15t-6 15t-15 6.5zM448 299q-8 0 -14.5 -6.5t-6.5 -15t6.5 -15t15 -6.5t15 6.5t6.5 15t-6.5 15t-15.5 6.5zM363 213q-9 0 -15 -6t-6 -15q0 -6 2.5 -11t7.5 -7.5t11 -2.5t11 2.5t7.5 7.5t2.5 11t-2.5 11t-7.5 7.5t-11 2.5z
M448 213q-8 0 -14.5 -6t-6.5 -15q0 -6 3 -11t8 -7.5t10 -2.5q9 0 15.5 6t6.5 15q0 6 -3 11t-8 7.5t-11 2.5zM363 128q-9 0 -15 -6t-6 -15q0 -6 2.5 -11t7.5 -8t11 -3q9 0 15 6.5t6 15.5t-6 15t-15 6zM448 128q-8 0 -14.5 -6t-6.5 -15q0 -6 3 -11t8 -8t10 -3q9 0 15.5 6.5
t6.5 15.5t-6.5 15t-15.5 6zM534 384q-9 0 -15.5 -6t-6.5 -15t6.5 -15.5t15.5 -6.5t15 6.5t6 15.5t-6 15t-15 6z" />
    <glyph glyph-name="uniE608" unicode="&#xe608;" 
d="M917 -43h-810q-44 0 -75.5 31.5t-31.5 75.5v597q0 44 31.5 75.5t75.5 31.5h810q44 0 75.5 -31.5t31.5 -75.5v-597q0 -44 -31.5 -75.5t-75.5 -31.5zM107 725q-18 0 -32.5 -8.5t-23 -23t-8.5 -32.5v-597q0 -26 18.5 -45t45.5 -19h810q27 0 45.5 19t18.5 45v597
q0 18 -8.5 32.5t-23 23t-32.5 8.5h-810zM1003 512h-982q-9 0 -15 6t-6 15t6 15.5t15 6.5h982q9 0 15 -6.5t6 -15.5q0 -4 -1.5 -8t-4.5 -7t-7 -4.5t-8 -1.5zM171 640zM128 640q0 12 5.5 21.5t15.5 15.5t22 6q17 0 29.5 -12.5t12.5 -30.5q0 -12 -5.5 -21.5t-15.5 -15.5t-21 -6
q-18 0 -30.5 12.5t-12.5 30.5zM299 640zM256 640q0 18 12.5 30.5t30 12.5t30 -12.5t12.5 -30.5q0 -29 -27 -40q-8 -2 -15 -3q-18 0 -30.5 12.5t-12.5 30.5zM427 640zM384 640q0 18 12.5 30.5t30 12.5t30 -12.5t12.5 -30.5q0 -29 -27 -40q-8 -2 -15 -3q-18 0 -30.5 12.5
t-12.5 30.5z" />
    <glyph glyph-name="uniE609" unicode="&#xe609;" 
d="M875 -128h-726q-3 0 -6.5 1t-6 3t-4.5 4.5t-3 6t-1 6.5v128q0 9 6.5 15.5t14.5 6.5h726q5 0 10 -3t8 -8t3 -11v-128q0 -8 -6.5 -14.5t-14.5 -6.5zM171 -85h682v85h-682v-85zM875 0h-726q-26 0 -45 19t-19 45v704q0 53 37.5 90.5t90.5 37.5h598q53 0 90.5 -37.5
t37.5 -90.5v-704q0 -26 -19 -45t-45 -19zM213 853q-35 0 -60 -25t-25 -60v-704q0 -6 3 -11t8 -7.5t10 -2.5h726q8 0 14.5 6t6.5 15v704q0 23 -11.5 42.5t-31 31t-42.5 11.5h-598zM783 256h-542q-29 0 -49.5 17.5t-20.5 42.5v435q0 16 9.5 30t25.5 22t35 8h542q29 0 49.5 -18
t20.5 -42v-435q0 -25 -20.5 -42.5t-49.5 -17.5zM241 768q-8 0 -14.5 -2.5t-10 -6.5t-3.5 -8v-435q0 -2 1.5 -4.5t4 -5t6 -4t7.5 -2.5t9 -1h542q12 0 20 5.5t8 11.5v435q0 6 -8 11.5t-20 5.5h-542zM299 128h-86q-8 0 -14.5 6.5t-6.5 14.5q0 3 1 6t2 5t3 4t4.5 3.5t5 2.5
t5.5 1h86q4 0 8 -2t7 -4.5t4.5 -6.5t1.5 -9q0 -8 -6.5 -14.5t-14.5 -6.5zM811 128h-214q-8 0 -14.5 6.5t-6.5 14.5q0 4 1 7t3 6t4.5 5t6 3t6.5 1h214q8 0 14.5 -6.5t6.5 -15.5q0 -5 -3 -10t-8 -8t-10 -3zM362.5 555q-5.5 0 -10.5 2.5t-8 7.5t-3 11v85q0 9 6.5 15.5t15.5 6.5
q5 0 10 -3t8 -8t3 -11v-85q0 -6 -3 -11t-8 -7.5t-10.5 -2.5zM661.5 555q-8.5 0 -15 6t-6.5 15v85q0 6 3 11t8 8t10 3t9 -2t6.5 -4.5t4.5 -6.5t2 -9v-85q0 -9 -6.5 -15t-15 -6zM533 469h-42q-9 0 -15.5 6.5t-6.5 15.5q0 4 2 8t4.5 7t6.5 4.5t9 1.5h21v107q0 5 3 10t8 8
t10.5 3t10.5 -3t8 -8t3 -10v-128q0 -9 -6.5 -15.5t-15.5 -6.5zM576 341h-128q-26 0 -45 19t-19 45q0 9 6.5 15.5t15 6.5t15 -6.5t6.5 -15.5q0 -3 0.5 -5.5t2 -5t3.5 -4.5t5 -3l4 -2q3 -1 6 -1h128q9 0 15 6.5t6 14.5q0 6 3 11t8 8t11 3q8 0 14.5 -6.5t6.5 -15.5
q0 -17 -8.5 -32t-23.5 -23.5t-32 -8.5z" />
    <glyph glyph-name="uniE60A" unicode="&#xe60a;" 
d="M384 -128q-93 0 -171.5 45.5t-124 124.5t-45.5 171q0 111 65 200.5t169 123.5v60q0 9 6.5 15.5t15.5 6.5h170q5 0 9 -2t6.5 -4.5t4.5 -6.5t2 -9v-60q51 -17 95 -49t74.5 -74.5t47.5 -94t17 -106.5q0 -138 -96 -237t-233 -104h-12zM320 576v-55q0 -16 -16 -20
q-113 -31 -175 -132q-43 -72 -44 -156q0 -123 87.5 -210.5t211.5 -87.5t211.5 87.5t87.5 210.5q0 101 -61.5 181t-157.5 107q-16 4 -16 20v55h-128zM683 555q-44 0 -75.5 31t-31.5 75q0 36 -25 61t-60 25q-23 0 -43 -11.5t-31.5 -31.5t-11.5 -43v-64q0 -8 -6 -14.5t-15 -6.5
q-6 0 -11 3t-7.5 8t-2.5 10v64q0 53 37.5 90.5t90.5 37.5t90.5 -37.5t37.5 -90.5q0 -17 8.5 -32t23 -23.5t32 -8.5t32.5 8.5t23.5 23.5t8.5 32.5t8.5 32t23 23t32.5 8.5q8 0 14.5 -6t6.5 -15q0 -4 -1.5 -8t-4.5 -7t-7 -4.5t-8 -1.5q-9 0 -15.5 -6.5t-6.5 -15.5
q0 -44 -31 -75t-75 -31zM811 768q-9 0 -15.5 6.5t-6.5 14.5v86q0 4 2 8t4.5 7t6.5 4.5t8.5 1.5t8.5 -1.5t7 -4.5t4.5 -7t1.5 -8v-86q0 -9 -6 -15t-15 -6zM871 743q-4 0 -8 1.5t-7 4.5q-4 4 -5.5 9.5t0 11t5.5 9.5l60 61q7 6 15.5 6t14.5 -6q5 -4 6 -9.5t0 -11t-6 -9.5
l-60 -61q-6 -6 -15 -6zM750 743q-4 0 -8 1.5t-7 4.5l-60 61q-6 6 -6 15t6 15t15 6t15 -6l60 -61q7 -6 7 -15t-6.5 -15t-15.5 -6zM981 683h-85q-9 0 -15 6t-6 15q0 4 1.5 8t4.5 7t7 4.5t8 1.5h85q9 0 15.5 -6t6.5 -15t-6.5 -15t-15.5 -6zM931.5 562q-8.5 0 -15.5 6l-60 61
q-3 2 -4.5 5t-2 6.5t0 6.5t2 6t4.5 6q6 6 15 6t15 -6l60 -61q5 -4 6 -9.5t0 -11t-6 -9.5q-6 -6 -14.5 -6zM192 58q-6 0 -10.5 2.5t-7.5 6.5q-61 87 -42 191.5t106 164.5q4 4 10 4.5t11 -2t8.5 -7.5t4 -10.5t-2 -10.5t-7.5 -9q-72 -50 -87.5 -137t34.5 -160q5 -7 3.5 -15.5
t-8.5 -13.5q-6 -4 -12 -4z" />
    <glyph glyph-name="uniE60B" unicode="&#xe60b;" 
d="M747 171h-512q-6 0 -11.5 1t-11 3t-10 4.5t-9 6t-8 8t-6 9t-4.5 10t-3 11t-1 11.5v512q0 61 43.5 105t105.5 44h341q62 0 106 -44t44 -105v-512q0 -13 -5 -25t-14 -20.5t-20.5 -13.5t-24.5 -5zM320 853q-29 0 -53.5 -14t-39 -38.5t-14.5 -53.5v-512q0 -5 2 -9t4.5 -6.5
t6.5 -4.5t9 -2h512q8 0 14.5 6.5t6.5 15.5v512q0 44 -31.5 75t-75.5 31h-341zM661 427h-341q-26 0 -45 18.5t-19 45.5v256q0 26 19 45t45 19h341q18 0 32.5 -8.5t23 -23.5t8.5 -32v-256q0 -27 -18.5 -45.5t-45.5 -18.5zM320 768q-9 0 -15 -6.5t-6 -14.5v-256q0 -6 2.5 -11
t7.5 -8t11 -3h341q9 0 15.5 6.5t6.5 15.5v256q0 8 -6.5 14.5t-15.5 6.5h-341zM661 341h-128q-8 0 -14.5 6.5t-6.5 15.5q0 4 1.5 8t4.5 7t7 4.5t8 1.5h128q9 0 15.5 -6.5t6.5 -14.5q0 -5 -2 -9t-4.5 -6.5t-6.5 -4.5t-9 -2zM1003 -128h-982q-4 0 -8 1.5t-7 4.5t-4.5 7t-1.5 8
v86q0 9 6 15l128 128q6 6 15 6h726q4 0 8 -1.5t7 -4.5l128 -128q6 -6 6 -15v-86q0 -8 -6.5 -14.5t-14.5 -6.5zM43 -85h938v55l-115 115h-708l-115 -115v-55zM1003 -43h-982q-4 0 -8 2t-7 4.5t-4.5 6.5t-1.5 9q0 8 6.5 14.5t14.5 6.5h982q8 0 14.5 -6.5t6.5 -15t-6.5 -15
t-14.5 -6.5zM917 85h-42v43h42q27 0 45.5 19t18.5 45q0 17 -8.5 32t-23 23.5t-32.5 8.5h-128v43h128q44 0 75.5 -31.5t31.5 -75.5q0 -22 -8.5 -41.5t-23 -34t-34 -23t-41.5 -8.5zM256 64q-6 0 -11 -3t-7.5 -8t-2.5 -10q0 -9 6 -15.5t15 -6.5q18 5 21 22q0 9 -6 15t-15 6z
M384 64q-18 -5 -21 -21q0 -9 6 -15.5t15 -6.5q18 5 21 22q0 9 -6 15t-15 6zM512 64q-3 0 -6 -1l-4 -2q-3 -1 -5 -3t-3.5 -4.5t-2 -5t-0.5 -5.5q0 -9 6 -15.5t15 -6.5t15 6.5t6 15.5t-6 15t-15 6zM640 64q-6 0 -11 -3t-7.5 -8t-2.5 -10q0 -9 6 -15.5t15 -6.5t15 6.5t6 15.5
t-6 15t-15 6zM768 64q-6 0 -11 -3t-7.5 -8t-2.5 -10q0 -9 6 -15.5t15 -6.5t15 6.5t6 15.5t-6 15t-15 6z" />
    <glyph glyph-name="uniE60C" unicode="&#xe60c;" 
d="M939 43h-854q-35 0 -60 25t-25 60v640q0 35 25 60t60 25h854q23 0 42.5 -11.5t31 -31t11.5 -42.5v-640q0 -48 -42 -73q-20 -12 -43 -12zM85 811q-17 0 -29.5 -12.5t-12.5 -30.5v-640q0 -7 2 -13.5t6 -11.5t9 -9t11.5 -6.5t13.5 -2.5h854q11 0 21 6t15.5 15.5t5.5 21.5
v640q0 12 -5.5 21.5t-15.5 15.5t-21 6h-854zM811 -85h-598q-4 0 -8 1.5t-7 4.5t-4.5 7t-1.5 8q0 9 6.5 15t14.5 6h598q8 0 14.5 -6t6.5 -15t-6.5 -15t-14.5 -6zM662 -85h-1h-298q-4 0 -7 1t-6 3t-5 5q-3 4 -3.5 9t0.5 10l43 128q5 14 20 14h214q7 0 12.5 -4t7.5 -10l41 -124
q3 -5 3 -11q0 -9 -6 -15t-15 -6zM392 -43h240l-29 86h-182zM939 213h-854v555h854v-555zM128 256h768v469h-768v-469zM512 149zM469 149.5q0 11.5 6 21.5t15.5 15.5t21.5 5.5q3 0 6.5 -0.5t7 -1.5t6.5 -2.5t5.5 -3.5t5 -4.5t4 -5t3.5 -5.5l2 -6q2 -3 2.5 -6.5t0.5 -7.5
q0 -11 -6 -21t-15.5 -15.5t-21.5 -5.5t-21.5 5.5t-15.5 15.5t-6 21.5z" />
    <glyph glyph-name="uniE60D" unicode="&#xe60d;" 
d="M939 0h-854q-35 0 -60 26t-25 63v633q0 36 25 62.5t60 26.5h854q35 0 60 -26.5t25 -62.5v-633q0 -37 -25 -63t-60 -26zM85 768q-11 0 -21 -6t-15.5 -17t-5.5 -23v-633q0 -12 5.5 -23t15.5 -17t21 -6h854q17 0 29.5 13.5t12.5 32.5v633q0 19 -12.5 32.5t-29.5 13.5h-854z
M811 -85h-598q-4 0 -8 1.5t-7 4.5t-4.5 7t-1.5 8q0 9 6.5 15t14.5 6h598q8 0 14.5 -6t6.5 -15t-6.5 -15t-14.5 -6zM512 -85q-4 0 -8 1.5t-7 4.5t-4.5 7t-1.5 8v85q0 9 6 15.5t15 6.5q6 0 11 -3t7.5 -8t2.5 -11v-85q0 -9 -6 -15t-15 -6zM512 107zM469 107q0 11 6 21
t15.5 15.5t21.5 5.5q9 0 16.5 -3t13.5 -9t9.5 -14t3.5 -16q0 -12 -6 -22t-15.5 -15.5t-21.5 -5.5q-18 0 -30.5 12.5t-12.5 30.5zM21 213h982v-42h-982v42z" />
    <glyph glyph-name="uniE60E" unicode="&#xe60e;" 
d="M853 341h-682v427h682v-427zM213 384h598v341h-598v-341zM710 43h-396l32 128h332zM369 85h286l-10 43h-266zM939 -128h-854q-17 0 -33 7t-27 18t-18 27t-7 33l1 28l84 295v488q0 23 11.5 42.5t31.5 31t43 11.5h682q18 0 33.5 -6.5t27 -18t18.5 -27.5t7 -33v-467l85 -322
v-22q0 -35 -25 -60t-60 -25zM43 -24v-19q0 -17 12.5 -29.5t29.5 -12.5h854q11 0 21 5.5t15.5 15.5t5.5 21v19l-85 323v469q0 9 -3.5 16.5t-9 13.5t-13.5 9.5t-17 3.5h-682q-12 0 -22 -6t-15.5 -15.5t-5.5 -21.5l-1 -497zM107 299h810v-43h-810v43zM21 0h982v-43h-982v43z
" />
    <glyph glyph-name="uniE60F" unicode="&#xe60f;" 
d="M960 21h-896q-26 0 -45 19t-19 45v43q0 6 3 11t8 7.5t10 2.5h982q9 0 15 -6t6 -15v-43q0 -39 -35 -57q-14 -6 -29 -7zM43 107v-22q0 -8 6 -14.5t15 -6.5h896q9 0 15 6.5t6 14.5v22h-938zM875 192h-726q-26 0 -45 19t-19 45v427q0 26 19 45t45 19h726q17 0 32 -8.5
t23.5 -23.5t8.5 -32v-427q0 -26 -19 -45t-45 -19zM149 704q-8 0 -14.5 -6.5t-6.5 -14.5v-427q0 -9 6.5 -15t14.5 -6h726q8 0 14.5 6t6.5 15v427q0 8 -6.5 14.5t-14.5 6.5h-726zM853 277h-682v384h682v-384zM213 320h598v299h-598v-299z" />
    <glyph glyph-name="uniE610" unicode="&#xe610;" 
d="M192 427h64v-43h-64v43zM256 469h-195q-25 0 -43 19t-18 45v299q0 26 18 45t43 19h433q25 0 43 -19t18 -45v-256h-43v256q0 9 -5.5 15t-12.5 6h-433q-8 0 -13 -6t-5 -15v-299q0 -8 5 -14.5t13 -6.5h195v-43zM192 384h-85q-6 0 -11 3t-8 8t-3 10q0 9 6.5 15.5t15.5 6.5h85
q9 0 15 -6.5t6 -15.5q0 -5 -2.5 -10t-7.5 -8t-11 -3zM0 597h555v-42h-555v42zM661 -128q-9 0 -15 6t-6 15v86q0 9 6 15t15 6t15.5 -6t6.5 -15v-86q0 -9 -6.5 -15t-15.5 -6zM846 -128h-377q-3 0 -6.5 1t-6 3t-4.5 4.5t-3 6t-1 6.5q0 9 6 15.5t15 6.5h377q9 0 15 -6.5t6 -15.5
t-6 -15t-15 -6zM934 -43h-546q-37 0 -63 29t-26 69v359q0 40 26 69t63 29h546q37 0 63.5 -29t26.5 -69v-359q0 -26 -12 -48.5t-32.5 -36t-45.5 -13.5zM388 469q-7 0 -14.5 -2.5t-13 -8t-10 -12t-7 -15t-2.5 -17.5v-359q0 -22 14 -38.5t33 -16.5h546q20 0 33.5 16.5
t13.5 38.5v359q0 23 -13.5 39t-33.5 16h-546zM1003 85h-683q-9 0 -15 6.5t-6 15.5q0 5 2.5 10t7.5 8t11 3h683q9 0 15 -6t6 -15t-6 -15.5t-15 -6.5zM661 64q-9 0 -15 -6t-6 -15q0 -5 1.5 -9t4.5 -6.5t7 -4.5t8 -2q9 0 15.5 6.5t6.5 15.5t-6.5 15t-15.5 6z" />
    <glyph glyph-name="uniE611" unicode="&#xe611;" 
d="M747 -128h-470q-44 0 -75 31.5t-31 75.5v810q0 44 31 75.5t75 31.5h470q44 0 75 -31.5t31 -75.5v-810q0 -44 -31 -75.5t-75 -31.5zM277 853q-17 0 -32 -8.5t-23.5 -23t-8.5 -32.5v-810q0 -27 19 -45.5t45 -18.5h470q8 0 16.5 2t15.5 6.5t13 10t10 12.5t6.5 15.5t2.5 17.5
v810q0 18 -8.5 32.5t-23.5 23t-32 8.5h-470zM832 683h-640q-9 0 -15 6t-6 15t6 15t15 6h640q9 0 15 -6t6 -15q0 -6 -2.5 -11t-7.5 -7.5t-11 -2.5zM832 43h-640q-6 0 -11 2.5t-7.5 7.5t-2.5 11t2.5 11t7.5 7.5t11 2.5h640q9 0 15 -6t6 -15q0 -6 -2.5 -11t-7.5 -7.5t-11 -2.5z
M512 21q-18 0 -30.5 -12.5t-12.5 -30t12.5 -30t30.5 -12.5q12 0 21.5 5.5t15.5 15.5t6 22q0 8 -3.5 16t-9.5 14t-13.5 9t-16.5 3zM619 768h-214q-9 0 -15 6t-6 15q0 17 17 21q2 1 4 1h214q21 0 21 -22q0 -4 -1.5 -8t-4.5 -7t-7 -4.5t-8 -1.5z" />
    <glyph glyph-name="uniE612" unicode="&#xe612;" 
d="M651 683h-278l-160 213h598zM395 725h234l96 128h-426zM587 -128h-150l-6 9q-14 19 -33 47t-62.5 100t-77 136t-60.5 138.5t-27 124.5q0 42 14 83.5t37 73t46.5 57t49.5 44.5t37 26.5t19 11.5l4 2h268l4 -2q8 -4 19 -11.5t37 -26.5t49.5 -44.5t46.5 -57t37 -73t14 -83.5
q0 -50 -27 -124.5t-60.5 -138.5t-77 -136t-62.5 -100t-33 -47zM459 -85h106q19 27 41 61t61.5 100t69 124t52 121.5t22.5 105.5q0 40 -16.5 79.5t-37.5 67t-49 53t-44 36.5t-30 20h-244q-88 -54 -137 -131q-39 -62 -40 -125q0 -51 31 -131t79.5 -163t79 -131.5t56.5 -86.5z
M512 341q-44 0 -75.5 31.5t-31.5 75.5t31.5 75.5t75.5 31.5t75.5 -31.5t31.5 -75.5t-31.5 -75.5t-75.5 -31.5zM512 512q-26 0 -45 -19t-19 -45t19 -45t45 -19t45 19t19 45t-19 45t-45 19zM491 341h42v-469h-42v469z" />
    <glyph glyph-name="uniE613" unicode="&#xe613;" 
d="M635 683h-246l-54 213h354zM422 725h180l32 128h-244zM546 -128h-68l-6 11q-12 22 -43 77q-38 67 -59.5 106.5t-52.5 104t-46 117.5t-15 96q0 115 70.5 185.5t185.5 70.5t185.5 -70.5t70.5 -185.5q0 -43 -15 -96t-46 -117.5t-52 -104t-60 -106.5q-31 -55 -43 -77z
M503 -85h18q11 20 37 67q30 51 46 80t42.5 81.5t41 88.5t26 78t11.5 74q0 64 -26 112.5t-74.5 74.5t-112.5 26q-97 0 -155 -58t-58 -155q0 -39 14.5 -88.5t44 -111.5t50.5 -100t58 -103q25 -44 37 -66zM512 256q-35 0 -60 25t-25 60q0 23 11.5 43t31 31.5t42.5 11.5
q35 0 60 -25t25 -61q0 -23 -11.5 -42.5t-31 -31t-42.5 -11.5zM512 384q-7 0 -13.5 -2t-11.5 -6t-9 -9.5t-6.5 -12t-2.5 -13.5q0 -17 12.5 -29.5t30.5 -12.5q9 0 16.5 3t13.5 9t9.5 14t3.5 16q0 12 -6 22t-15.5 15.5t-21.5 5.5zM491 277h42v-384h-42v384zM427 704h42v-92h-42
v92zM555 704h42v-92h-42v92z" />
    <glyph glyph-name="uniE614" unicode="&#xe614;" 
d="M917 -128h-298q-9 0 -15.5 6t-6.5 15v982q0 9 6.5 15t15.5 6h298q9 0 15.5 -6t6.5 -15v-982q0 -9 -6.5 -15t-15.5 -6zM640 -85h256v938h-256v-938zM619 725h106v-42h-106v42zM619 597h106v-42h-106v42zM619 469h106v-42h-106v42zM619 341h106v-42h-106v42zM619 213h106
v-42h-106v42zM619 85h106v-42h-106v42zM320 -85h-85q-44 0 -75.5 31t-31.5 75v619q0 3 1 6t3 6l128 192q6 9 17.5 9t17.5 -9l128 -192l2 -4q1 -2 1.5 -4t0.5 -4v-619q0 -44 -31.5 -75t-75.5 -31zM171 634v-613q0 -10 3 -20t9 -17.5t14 -13.5t17.5 -9.5t20.5 -3.5h85
q26 0 45 19t19 45v613l-107 160zM405 43h-256q-9 0 -15 6t-6 15t6 15t15 6h256q9 0 15.5 -6t6.5 -15q0 -6 -3 -11t-8 -7.5t-11 -2.5zM405 128h-256q-9 0 -15 6t-6 15t6 15.5t15 6.5h256q17 0 21 -17l1 -5q0 -9 -6.5 -15t-15.5 -6zM235 128q-9 0 -15.5 6t-6.5 15v406
q0 9 6.5 15t15.5 6t15 -6t6 -15v-406q0 -5 -3 -10t-8 -8t-10 -3zM320 128q-18 5 -21 21v406q0 5 2.5 10t7.5 8t11 3q9 0 15 -6t6 -15v-406q0 -4 -1.5 -8t-4.5 -7t-7 -4.5t-8 -1.5zM213 747h128v-43h-128v43zM213 533q-23 0 -42.5 11.5t-31 31.5t-11.5 43q0 3 1 6.5t3 6
t4.5 4.5t6 3t6.5 1q9 0 15.5 -6t6.5 -15q0 -18 12.5 -30.5t29.5 -12.5q12 0 22 5.5t15.5 15.5t5.5 22q0 9 6 15t15 6t15.5 -6t6.5 -15q0 -36 -25 -61t-61 -25zM341 533q-23 0 -42.5 11.5t-31 31.5t-11.5 43q0 9 6 15t15 6t15.5 -6t6.5 -15t3 -17t9 -13.5t14 -9t16 -3.5
q12 0 22 5.5t15.5 15.5t5.5 22q0 9 6 15t15 6q6 0 11 -3t8 -8t3 -10q0 -36 -25 -61t-61 -25z" />
    <glyph glyph-name="uniE615" unicode="&#xe615;" 
d="M747 512h-470q-9 0 -15 6t-6 15q0 4 1 7t3 6t4.5 5t6 3t6.5 1h470q5 0 10 -3t8 -8t3 -11q0 -4 -1.5 -8t-4.5 -7t-7 -4.5t-8 -1.5zM448 384h-85q-9 0 -15.5 6t-6.5 15q0 17 17 21l5 1h85q4 0 8 -2t7 -4.5t4.5 -6.5t1.5 -9q0 -9 -6 -15t-15 -6zM448 299h-85q-9 0 -15.5 6
t-6.5 15q0 2 0.5 4.5t2 4.5t2.5 4t3 3.5t4 2.5t4.5 1.5t5.5 0.5h85q9 0 15 -6t6 -15t-6 -15t-15 -6zM448 213h-85q-9 0 -15.5 6.5t-6.5 15.5q0 17 17 20l5 1h85q9 0 15 -6t6 -15q0 -6 -2.5 -11t-7.5 -8t-11 -3zM555 -128h-86q-3 0 -6.5 1t-6 3t-4.5 4.5t-3 6t-1 6.5v78
q-48 22 -77.5 70.5t-29.5 107.5v555q0 79 50 135.5t121 56.5t121 -56.5t50 -135.5v-555q0 -59 -29.5 -107.5t-77.5 -70.5v-78q0 -9 -6 -15t-15 -6zM491 -85h42v71q0 7 4 12.5t11 7.5q27 9 48 30.5t32.5 51t11.5 61.5v555q0 62 -37.5 105.5t-90.5 43.5q-35 0 -64.5 -20
t-46.5 -54.5t-17 -74.5v-555q0 -32 11.5 -61.5t32.5 -51t48 -30.5q15 -5 15 -20v-71z" />
    <glyph glyph-name="uniE616" unicode="&#xe616;" 
d="M704 -128h-128q-9 0 -15 6t-6 15v64h-448q-6 0 -11 3t-8 8t-3 11v448h-64q-9 0 -15 6t-6 15v128q0 9 6 15t15 6h64v64q0 9 6.5 15.5t15.5 6.5h128q9 0 15 -6.5t6 -15.5v-64h448q4 0 8 -1.5t7 -4.5t4.5 -7t1.5 -8v-448h64q3 0 5.5 -0.5t4.5 -1.5t4 -2.5t3 -3.5t2.5 -4
t2 -4.5t0.5 -4.5v-128q0 -9 -6.5 -15.5t-15.5 -6.5h-64v-64q0 -9 -6 -15t-15 -6zM597 -85h86v64q0 9 6 15t15 6h64v85h-64q-9 0 -15 6.5t-6 15.5v448h-448q-9 0 -15.5 6t-6.5 15v64h-85v-64q0 -3 -1 -6.5t-3 -6t-4.5 -4.5t-6 -3t-6.5 -1h-64v-86h64q9 0 15 -6t6 -15v-448
h448q9 0 15 -6t6 -15v-64zM576 85h-341q-9 0 -15.5 6.5t-6.5 15.5v341q0 3 1 5.5t2.5 5t3.5 4.5t4 3.5t5 2t6 0.5h341q2 0 4.5 -0.5t4.5 -1.5t4 -2.5t3.5 -3.5t2.5 -4t1.5 -4.5t0.5 -4.5v-341q0 -9 -6 -15.5t-15 -6.5zM256 128h299v299h-299v-299zM235 85q-9 0 -15.5 6.5
t-6.5 15t7 15.5l341 341q3 3 7 4.5t8 1.5t8 -1.5t7 -4.5q12 -15 0 -30l-341 -341q-3 -3 -7 -5t-8 -2zM704 555q-4 0 -8 1.5t-7 4.5q-6 6 -6 15t6 15l213 213q7 7 15.5 7t14.5 -7q12 -15 0 -30l-213 -213q-6 -6 -15 -6zM299 555h-214q-9 0 -15 6t-6 15t6 15t15 6h214
q9 0 15 -6t6 -15q0 -6 -3 -11t-8 -7.5t-10 -2.5zM235 427h-128q-4 0 -7 1t-6 3t-5 4.5t-3 6t-1 6.5q0 9 6.5 15t15.5 6h128q9 0 15 -6t6 -15t-6 -15t-15 -6zM704 85h-128q-9 0 -15 6.5t-6 15.5t6 15t15 6h128q9 0 15 -6t6 -15q0 -6 -2.5 -11t-7.5 -8t-11 -3zM704 -43h-128
q-9 0 -15 6.5t-6 15.5t6 15t15 6h128q9 0 15 -6t6 -15q0 -6 -2.5 -11t-7.5 -8t-11 -3z" />
    <glyph glyph-name="uniE617" unicode="&#xe617;" 
d="M491 -128q-72 0 -139 7t-122.5 21t-89 37t-33.5 52v576h42v-576q0 -14 37.5 -30.5t119.5 -30t184.5 -13.5t184.5 13.5t119.5 30t37.5 30.5v576h43v-576q0 -19 -15.5 -36t-43 -30t-64 -22.5t-80 -16t-89 -9.5t-92.5 -3zM491 448q-72 0 -139 7t-122.5 21t-89 37t-33.5 52
t33.5 52.5t89 37t122.5 21t138.5 7.5t138.5 -7.5t122.5 -21t89.5 -37t34 -52.5q0 -19 -15.5 -36t-43 -30t-64 -22.5t-80 -16t-89 -9.5t-92.5 -3zM491 640q-103 0 -185 -13.5t-119.5 -30.5t-37.5 -31q0 -8 14 -17.5t43 -19.5t68.5 -18.5t96 -13.5t120.5 -5q102 0 184 13.5
t119.5 30t37.5 30.5q0 8 -14 17.5t-43 20t-68.5 18.5t-96 13.5t-119.5 5.5zM149 320h-21q-44 0 -75.5 31.5t-31.5 75.5q0 29 14.5 53.5t39 38.5t53.5 14h21v-213zM107 487q-13 -4 -22.5 -13t-15 -21.5t-5.5 -25.5q0 -21 12 -37.5t31 -23.5v121zM853 320h-21v213h21
q44 0 75.5 -31t31.5 -75t-31.5 -75.5t-75.5 -31.5zM875 487v-121q19 7 30.5 23.5t11.5 37.5q0 13 -5.5 25.5t-15 21.5t-21.5 13zM640 85q-21 0 -41 8.5t-34 23.5q-32 31 -31 75q0 44 -1 118v10h-42v-43q0 -17 -7 -33t-18.5 -27t-27 -18t-33.5 -7q-35 0 -60 25t-25 60v56
q-63 5 -113 21q-9 3 -13 10.5t-1 16t10.5 12.5t16.5 2q54 -18 122 -21l21 -1v-96q0 -11 5.5 -21t15.5 -15.5t21.5 -5.5t21.5 5.5t15.5 15.5t5.5 21v86h128v-53v-118q0 -26 19 -45q6 -6 13 -10.5t15.5 -6.5t16.5 -2q9 0 17 2.5t15 6.5t13 10t10 13t6.5 15t2.5 17v189l17 4
q11 2 21 5l20 6q6 1 11 0t9.5 -5t6.5 -9q2 -8 -2 -16t-12 -11q-13 -4 -28 -8v-155q0 -22 -8.5 -41.5t-23 -34t-34 -23t-41.5 -8.5zM875 512h-43v64q0 115 -81.5 196t-195.5 81h-128q-76 0 -139.5 -37t-101 -101t-37.5 -139v-64h-42v64q0 87 42.5 160.5t116.5 116.5t161 43
h128q65 0 124 -25.5t102 -68.5t68.5 -102t25.5 -124v-64z" />
    <glyph glyph-name="uniE618" unicode="&#xe618;" 
d="M939 213h-854v171q0 35 25 60t61 25h214q5 0 10 2.5t8 7t3.5 10t-1.5 10.5q-21 52 -21 108v161q0 53 37.5 90.5t90.5 37.5t90.5 -37.5t37.5 -90.5v-161q0 -28 -5 -55.5t-16 -52.5q-2 -5 -1.5 -10.5t3.5 -9.5q7 -10 18 -10h214q36 0 61 -25t25 -60v-171zM128 256h768v128
q0 12 -5.5 21.5t-15.5 15.5t-22 6h-214q-16 0 -30 7.5t-23 20.5q-19 28 -6 59q17 45 17 93v161q0 23 -11.5 42.5t-31 31t-42.5 11.5q-12 0 -23 -3t-20 -8.5t-17 -13.5t-13.5 -17t-8.5 -20t-3 -23v-161q0 -48 17 -93q13 -31 -6 -59q-6 -9 -14.5 -15.5t-18 -9.5t-20.5 -3h-214
q-18 0 -30.5 -12.5t-12.5 -30.5v-128zM875 -128h-534q-9 0 -15 6q-1 2 -2.5 3.5t-1.5 3.5l-2 4v4v81l-45 -90q-6 -12 -19 -12h-107q-3 0 -6.5 1t-6 3t-4.5 4.5t-3 6t-1 6.5v342q0 8 6.5 14.5t14.5 6.5h726q8 0 14.5 -6.5t6.5 -14.5v-342q0 -8 -6.5 -14.5t-14.5 -6.5z
M363 -85h490v298h-682v-298h72l79 159q8 15 24.5 11t16.5 -21v-149zM789.5 -128q-8.5 0 -15 6.5t-6.5 14.5v214q0 5 3 10t8 8t10 3q9 0 15.5 -6.5t6.5 -14.5v-214q0 -8 -6.5 -14.5t-15 -6.5zM704 -128q-9 0 -15 6.5t-6 14.5v171q0 6 2.5 11t7.5 7.5t11 2.5q9 0 15 -6t6 -15
v-171q0 -8 -6 -14.5t-15 -6.5zM619 -128q-9 0 -15.5 6.5t-6.5 14.5v107q0 4 2 8t4.5 7t6.5 4.5t9 1.5q8 0 14.5 -6t6.5 -15v-107q0 -5 -3 -10t-8 -8t-10 -3zM512 768zM469 768q0 12 6 21.5t15.5 15.5t21.5 6q9 0 16.5 -3.5t13.5 -9.5t9.5 -13.5t3.5 -16.5q0 -12 -6 -21.5
t-15.5 -15.5t-21.5 -6q-18 0 -30.5 12.5t-12.5 30.5z" />
    <glyph glyph-name="uniE619" unicode="&#xe619;" 
d="M768 555h-512q-35 0 -60 25t-25 60v128q0 35 25 60t60 25h512q23 0 42.5 -11.5t31 -31t11.5 -42.5v-128q0 -23 -11.5 -42.5t-31 -31t-42.5 -11.5zM256 811q-12 0 -21.5 -6t-15.5 -15.5t-6 -21.5v-128q0 -18 12.5 -30.5t30.5 -12.5h512q12 0 21.5 6t15.5 15.5t6 21.5v128
q0 9 -3.5 16.5t-9.5 13.5t-13.5 9.5t-16.5 3.5h-512zM832 725h64v-42h-64v42zM555 256h-43v192q0 6 -3 11t-8 7.5t-10 2.5h-320q-41 0 -63.5 22.5t-22.5 63.5v85q0 20 6 36t17 27t26.5 16.5t36.5 5.5h21v-42h-21q-23 0 -33 -10t-10 -33v-85q0 -23 10 -33t33 -10h320
q26 0 45 -19t19 -45v-192zM555 -128h-43q-13 0 -25 5t-20.5 13.5t-13.5 20.5t-5 25v235q0 50 22.5 78t62.5 28t63 -28t23 -78v-235q0 -26 -19 -45t-45 -19zM533 235q-5 0 -8.5 -0.5t-10.5 -4t-11.5 -9.5t-8 -19t-3.5 -31v-235q0 -6 2.5 -11t7.5 -7.5t11 -2.5h43q8 0 14.5 6
t6.5 15v235q0 18 -3.5 31t-8 19t-11.5 9.5t-11 4t-9 0.5z" />
    <glyph glyph-name="uniE61A" unicode="&#xe61a;" 
d="M520 -109q-24 0 -51 4.5t-58.5 14.5t-63.5 25t-64 37t-61 49t-54 63t-43.5 77t-29 93t-10.5 109q0 104 35.5 198.5t95.5 163t143 109.5t174 41q128 0 230.5 -66t160 -183t57.5 -263q0 -55 -19 -121.5t-59 -120.5t-87 -54q-49 0 -91 62q-11 15 -22 26.5t-21.5 17
t-19.5 5.5q-7 0 -13.5 -3.5t-12.5 -11.5q-20 -23 -25.5 -70.5t7.5 -130.5q3 -12 0 -22.5t-10 -19.5q-24 -29 -88 -29zM533 832q-82 0 -157 -37t-129.5 -100t-86.5 -150t-32 -182q0 -67 15.5 -125t41 -100.5t59.5 -78t70 -58t74.5 -38.5t71 -22.5t60.5 -6.5q44 0 55 13
q2 3 1 6q-3 17 -5.5 34t-3.5 32.5t-1 31t1 29.5t3 27t5 25t7 22.5t9 19.5t12 17q24 30 59 30q10 0 20 -3t23 -10t27 -21t28 -34q29 -43 56 -43q28 0 57 42t47.5 101t18.5 110q0 134 -52 241.5t-145 167.5t-209 60zM405 21q-44 0 -75 31.5t-31 75.5t31 75.5t75 31.5
t75.5 -31.5t31.5 -75.5q0 -17 -5.5 -33.5t-15.5 -29.5t-23 -23t-29 -15.5t-34 -5.5zM405.5 192q-26.5 0 -45.5 -19t-19 -45q0 -17 8.5 -32t23.5 -23.5t32 -8.5q27 0 45.5 19t18.5 45t-18.5 45t-45 19zM277 320q-35 0 -60 25t-25 60q0 12 3 22.5t8.5 20.5t13.5 18
q25 25 60.5 25t60.5 -25t25 -61q0 -17 -6.5 -32.5t-18.5 -27.5q-25 -25 -61 -25zM277 448q-8 0 -16 -3t-14 -10q-12 -12 -12 -30q0 -4 0.5 -7.5t2 -7t3 -6.5t4 -6t5.5 -5.5t6 -4t6.5 -3t7 -2t7.5 -0.5v-22v22q9 0 17 3t14 9t9 14t3 16q0 18 -12.5 30.5t-30.5 12.5zM384 512
q-35 0 -60 25t-25 60.5t25 60.5t60 25t60 -25q12 -12 18.5 -28t6.5 -33t-6.5 -32.5t-18.5 -27.5q-25 -25 -60 -25zM384 640q-3 0 -6.5 -0.5t-6.5 -1.5t-6 -2.5t-6 -3.5t-5 -5q-13 -12 -13 -29.5t12.5 -30t30.5 -12.5v-22v22q9 0 16.5 3t13.5 9q13 13 13 30q0 6 -1.5 11.5
t-4.5 10t-7 8.5q-12 13 -30 13zM576 597q-35 0 -60 25t-25 60.5t25 60.5q3 3 7 6l8 6q4 3 8 5t8.5 3.5t9.5 2.5t9.5 1.5t9.5 0.5q17 0 32.5 -6.5t27.5 -18.5t18.5 -27.5t6.5 -32.5q0 -9 -1.5 -17t-4.5 -16t-8 -15t-11 -13q-24 -25 -60 -25zM576 725h-6q-2 0 -5 -1t-5.5 -2
t-5 -2.5t-4.5 -3t-4 -3.5q-13 -13 -13 -30.5t12.5 -30t30.5 -12.5v-21v21q3 0 6 0.5t5.5 1t5 1.5t5 2.5t4.5 3t4 4.5q13 12 13 30q0 8 -3.5 16t-9.5 14q-12 12 -30 12zM768 448q-35 0 -60 25t-25 60.5t25 60.5t60 25t60 -25q12 -12 18.5 -28t6.5 -33q0 -35 -25 -60t-60 -25z
M768 576q-4 0 -8.5 -1t-8 -2.5t-7 -3.5t-6.5 -6q-13 -12 -13 -30q0 -11 6 -21t15.5 -15.5t21.5 -5.5v-22v22q9 0 16.5 3t13.5 9q13 13 13 30q0 5 -1 9t-2.5 7.5t-4 7t-5.5 6.5q-12 13 -30 13z" />
    <glyph glyph-name="uniE61B" unicode="&#xe61b;" horiz-adv-x="1025" 
d="M896 -128h-299v277h-170v-277h-299v448q5 18 21 21q9 0 15.5 -6t6.5 -15v-405h213v277h256v-277h213v384q0 9 6.5 15t15.5 6q5 0 10 -3t8 -8t3 -10v-427zM1003 320q-4 0 -8 1.5t-7 4.5l-476 455l-476 -455q-6 -6 -15 -6t-15 6.5t-6 15.5t7 15l505 483l505 -483
q7 -6 7 -15t-6 -15q-6 -7 -15 -7zM832 576q-4 0 -8 1.5t-7 4.5t-4.5 7t-1.5 8v128h-128q-22 0 -22 22q0 9 6.5 15t15.5 6h170v-171q0 -4 -1.5 -8t-4.5 -7t-7 -4.5t-8 -1.5z" />
    <glyph glyph-name="uniE61C" unicode="&#xe61c;" 
d="M469.5 149q-73.5 0 -140.5 29t-116 77.5t-77.5 115.5t-28.5 141q0 98 48.5 181.5t132 132.5t181.5 49q74 0 141 -29t116 -77.5t77.5 -115.5t28.5 -141t-28.5 -141t-77.5 -115.5t-116 -77.5t-140.5 -29zM469 832q-65 0 -124 -25.5t-102 -68.5t-68.5 -102t-25.5 -124
q0 -87 43 -160.5t117 -116.5t160.5 -43t160.5 43t116.5 116.5t42.5 160.5q0 65 -25 124t-68 102t-102.5 68.5t-124.5 25.5zM469 43q-194 0 -331 137l30 30q61 -61 141 -93t160.5 -32t160.5 32t141 93q49 49 80 110.5t40 126.5t0 130t-40 126.5t-80 110.5l30 30
q54 -54 88 -121.5t44 -139t0 -143t-44 -139t-88 -121.5q-124 -124 -299 -136q-17 -1 -33 -1zM427 65h42v-87h-42v87zM469 65h43v-87h-43v87zM789 -128h-639l51 38q120 90 268.5 90t267.5 -90zM289 -85h361q-85 42 -180.5 42t-180.5 -42zM123 144q-9 0 -16 6q-4 4 -5.5 9.5
t0 11t5.5 9.5l61 60q6 7 15 7t15 -6.5t6 -15t-6 -15.5l-60 -60q-2 -2 -4.5 -3.5t-5.5 -2t-5 -0.5zM756 777q-9 0 -15 6.5t-6 15t6 15.5l60 60q7 6 15.5 6t14.5 -6q12 -15 0 -30l-60 -60q-6 -7 -15 -7z" />
    <glyph glyph-name="uniE61D" unicode="&#xe61d;" 
d="M512 -123l-18 26q-16 23 -39.5 58.5t-78.5 125t-96.5 167t-75 164t-33.5 137.5q0 92 45.5 171t124 124.5t171.5 45.5t171.5 -45.5t124 -124.5t45.5 -171q0 -43 -22 -108.5t-59.5 -138.5t-74.5 -138.5t-78.5 -131t-59.5 -92t-29 -43.5zM512 853q-124 0 -211.5 -87.5
t-87.5 -210.5q0 -51 35.5 -138t91.5 -184t95.5 -160.5t76.5 -119.5q37 56 76.5 119.5t95.5 160.5t91.5 184t35.5 138q0 81 -40 149.5t-109 108.5t-150 40zM512 405q-62 0 -105.5 44t-43.5 106q0 40 20 74.5t54.5 54.5t74.5 20q62 0 105.5 -44t43.5 -105.5t-43.5 -105.5
t-105.5 -44zM512 661q-14 0 -28 -3.5t-26 -10.5t-21.5 -17t-16.5 -21.5t-11 -25.5t-4 -28q0 -44 31.5 -75.5t75.5 -31.5t75.5 31.5t31.5 75.5t-31.5 75t-75.5 31z" />
    <glyph glyph-name="uniE61E" unicode="&#xe61e;" 
d="M427 299q-18 0 -30.5 -12.5t-12.5 -30.5q0 -9 3.5 -16.5t9 -13.5t13.5 -9.5t17 -3.5q17 0 29.5 12.5t12.5 30.5q0 5 -1 10t-3 9t-5 7.5t-6.5 6.5t-8 5t-9 3.5t-9.5 1.5zM427 341q35 0 60 -25t25 -60t-25 -60t-60 -25q-23 0 -43 11.5t-31.5 31t-11.5 42.5t11.5 42.5
t31.5 31t43 11.5zM427 384q-35 0 -64.5 -17t-46.5 -46.5t-17 -64.5q0 -53 37.5 -90.5t90.5 -37.5t90.5 37.5t37.5 90.5q0 26 -10.5 49.5t-27.5 41t-40.5 27.5t-49.5 10zM427 469q88 0 150.5 -62.5t62.5 -150.5t-62.5 -150.5t-150.5 -62.5q-58 0 -107 28.5t-78 77.5t-29 107
q0 19 3.5 38t10 36.5t16 33.5t21 29.5t25.5 25.5t30 21t33 15.5t36 10t39 3.5zM427 512q-106 0 -181 -75t-75 -181q0 -70 34 -128.5t93 -93t129 -34.5q106 0 181 75t75 181q0 70 -34.5 128.5t-93.5 93t-128 34.5zM427 597q92 0 171 -45.5t124.5 -124t45.5 -171.5
t-45.5 -171.5t-124.5 -124t-171 -45.5q-31 0 -61.5 5.5t-58 16t-53 25t-47.5 33.5t-41 41t-34 47.5t-25.5 53.5t-16 58t-5.5 61q0 69 27 132.5t73 109t109 72.5t133 27zM427 640q-78 0 -149.5 -30.5t-123 -82t-81.5 -122.5t-30 -149q0 -104 51 -192.5t139.5 -140t193 -51.5
t193 51.5t140 140t51.5 192.5q0 45 -10 88t-29 81t-45.5 71t-60 59.5t-71 45.5t-81 29t-87.5 10zM881 740l30 -30l-469 -469l-30 30zM875 791v-44v-43h42h45q-16 -34 -33.5 -62t-41.5 -49.5t-46 -21.5q-4 0 -8.5 0.5t-8.5 2t-8.5 4t-9.5 5t-9.5 6.5t-9.5 8t-10 9
q-19 19 -28 36.5t-7.5 25.5t1.5 14q7 29 44.5 58t87.5 51zM917 853q-7 -2 -19 -6t-44 -18.5t-58.5 -30.5t-53 -41t-37.5 -51.5t-2 -60.5t44 -69q47 -48 94 -48q32 0 62.5 22.5t51.5 54.5t37.5 64.5t23.5 54.5l8 23h-107v106zM789 789h43v-149h-43v149zM64 -128q-9 0 -15 6.5
t-6 15t6 14.5l91 92q6 6 15 6t15 -6.5t6 -15t-6 -15.5l-91 -91q-6 -6 -15 -6zM789 -128q-4 0 -8 1.5t-7 4.5l-91 91q-6 7 -6 15.5t6 15t15 6.5t15 -6l91 -92q7 -6 7 -14.5t-6.5 -15t-15.5 -6.5z" />
    <glyph glyph-name="uniE61F" unicode="&#xe61f;" horiz-adv-x="1025" 
d="M789 -128h-789v939h619q8 0 14.5 -6.5t6.5 -15.5q0 -4 -1.5 -8t-4.5 -7t-7 -4.5t-8 -1.5h-576v-853h704v469q0 9 6 15t15 6t15 -6t6 -15v-512zM469 533zM462 312q-5 0 -8.5 1.5t-7.5 5.5q-10 10 -4 24l61 121l4 5l407 408q19 19 45 19q19 0 35.5 -11.5t24.5 -30.5
q8 -17 4 -35.5t-18 -32.5l-408 -407q-2 -3 -5 -4l-121 -61q-2 -1 -4.5 -1.5t-4.5 -0.5zM539 442l-30 -61l61 30l404 405q11 10 6 22q-7 15 -21 15q-8 0 -15 -7zM929 720q-9 0 -15 6l-60 60q-6 6 -6 15t6 15.5t15 6.5t15 -7l60 -60q7 -6 7 -15t-7 -15q-1 -2 -3 -3l-4 -2
q-2 -1 -4 -1h-4z" />
    <glyph glyph-name="uniE620" unicode="&#xe620;" 
d="M652 -128h-604l2 23q15 195 217 230v24h-42v128h256v-128h-43v-24q197 -34 212 -230zM95 -85h510q-11 76 -57 117.5t-134 53.5l-19 2v104h43v43h-171v-43h43v-104l-18 -2q-89 -12 -137.5 -54t-59.5 -117zM427 320q-9 0 -15.5 6t-6.5 15t7 15l519 520q6 6 15 6t15 -6
q12 -16 0 -31l-519 -519q-3 -3 -7 -4.5t-8 -1.5zM494 387q-9 0 -16 6q-19 20 -26 50.5t0.5 67.5t26 77.5t49.5 83.5t71 83q100 100 204 136q11 3 20 -3t9 -17v-146q0 -8 -6.5 -14.5t-15.5 -6.5q-5 0 -10 3t-8 8t-3 10v114q-26 -12 -53.5 -29t-54.5 -38.5t-52 -46.5
q-45 -45 -77 -93.5t-46 -88.5t-13.5 -72t16.5 -48q6 -6 6 -15t-6 -15q-3 -3 -7 -4.5t-8 -1.5zM863 555h-202q-8 0 -14.5 6t-6.5 15q0 4 1.5 8t4.5 7t7 4.5t8 1.5h202q6 0 11 -2.5t7.5 -7.5t2.5 -11t-2.5 -11t-7.5 -7.5t-11 -2.5zM557 364q-24 0 -44 7t-35 22q-6 6 -6 15
t6.5 15t15 6t15.5 -6q18 -17 48.5 -17t71.5 16.5t85 46.5h-138q-9 0 -15 6.5t-6 15.5q0 5 2.5 10t7.5 8t11 3h202q6 0 11.5 -4t8.5 -10q5 -14 -7 -24q-63 -53 -124.5 -81.5t-109.5 -28.5zM927 640h-180q-6 0 -11 3t-8 8t-3 10q0 9 6.5 15.5t15.5 6.5h167q20 36 28.5 67.5
t5.5 56t-17 38.5l-4 6q-2 3 -2 6v7q0 3 2 6l4 6q6 6 15 6t15 -6q17 -17 24.5 -41t5.5 -52.5t-13.5 -62t-32.5 -69.5q-6 -11 -18 -11z" />
    <glyph glyph-name="uniE621" unicode="&#xe621;" horiz-adv-x="1025" 
d="M21 -107v21q0 8 0.5 20.5t5 43.5t12.5 59t24.5 61t38.5 55q38 37 90 37t89.5 -37t37.5 -89.5t-38 -89.5q-14 -15 -32.5 -27t-37.5 -20t-38 -14t-38.5 -9.5t-34.5 -6t-29 -3.5t-19 -1h-9h-22zM192 147q-35 0 -60 -24q-57 -57 -67 -186q129 10 186 67q12 12 18.5 27t6.5 32
q0 35 -24.5 59.5t-59.5 24.5zM43 -107q-9 0 -15.5 6t-6.5 15t7 15l120 121q3 3 7 4.5t8 1.5t8 -1.5t7 -4.5q2 -2 3.5 -4t2 -4t1 -4.5t0 -5t-1 -4.5t-2 -4t-3.5 -4l-120 -121q-6 -6 -15 -6zM339 69q-8 0 -15 6l-120 121q-7 6 -7 15t7 15l663 664q3 3 7 4.5t8 1.5q9 0 16 -6
l120 -121q6 -6 6 -15t-6 -15l-663 -664q-7 -6 -16 -6zM249 211l90 -91l634 634l-91 91zM490 582q-9 0 -15 6t-6 15t6 15l242 242q31 31 75 31t75 -31q7 -7 7 -15.5t-7 -15.5q-15 -12 -30 0q-18 19 -45 19t-45 -19l-242 -241q-6 -6 -15 -6zM762 491q-9 0 -15 7l-121 120
q-6 6 -6 15t6 15q15 12 30 0l121 -120q4 -4 5.5 -9.5t0 -11t-5.5 -9.5q-6 -7 -15 -7z" />
    <glyph glyph-name="uniE622" unicode="&#xe622;" horiz-adv-x="1025" 
d="M263 -7q-9 0 -15 6l-121 121q-4 4 -5.5 9.5t0 11t5.5 9.5l740 739q6 7 15 7q3 0 5.5 -1t5 -2.5t4.5 -3.5l120 -120q7 -6 7 -15t-7 -15l-739 -740q-6 -6 -15 -6zM172 135l91 -91l709 710l-90 90zM489 581q-8 0 -14.5 6.5t-6.5 15.5t6 15l242 241q31 31 75 31t76 -31
q4 -4 5.5 -9.5t0 -11t-5.5 -9.5q-16 -12 -31 0q-18 19 -44.5 19t-45.5 -19l-241 -241q-4 -3 -7.5 -5t-8.5 -2zM21.5 -128q-8.5 0 -15 6.5t-6.5 15t6 14.5l91 91q4 4 9.5 5.5t11 0t9.5 -5.5q2 -2 3 -4l2 -4q1 -2 1 -5v-4q0 -3 -1 -5l-2 -4q-1 -2 -3 -4l-91 -91
q-6 -6 -14.5 -6zM761 491q-9 0 -15 6l-121 121q-6 6 -6 15t6 15t15 6t15 -6l121 -121q6 -6 6 -15t-6 -15q-1 -1 -3 -2.5t-4 -2.5h-4q-2 -1 -4 -1zM142 -68q-4 0 -8 2t-7 5l-60 60q-7 6 -7 15t7 15l90 91q6 6 15 6t15 -6q4 -5 5.5 -10t0 -10.5t-5.5 -10.5l-75 -75l30 -30
l75 75q7 6 15.5 6t15.5 -6q2 -2 3 -5l2 -4q1 -3 1 -6t-1 -6l-2 -4q-1 -3 -3 -5l-91 -90q-2 -2 -4.5 -3.5t-5 -2.5t-5.5 -1z" />
    <glyph glyph-name="uniE623" unicode="&#xe623;" 
d="M939 -128h-854q-17 0 -33 7t-27 18t-18 27t-7 33v640q0 36 25 61t60 25h427q9 0 15 -6.5t6 -15.5q0 -4 -1.5 -8t-4.5 -7t-7 -4.5t-8 -1.5h-427q-11 0 -21 -5.5t-15.5 -15.5t-5.5 -22v-640q0 -7 2 -13.5t6 -11.5t9 -9t11.5 -6t13.5 -2h854q11 0 21 5.5t15.5 15.5t5.5 21
v640q0 12 -5.5 22t-15.5 15.5t-21 5.5q-5 0 -9 1.5t-6.5 4.5t-4.5 7t-2 8.5t2 8.5t4.5 6.5t6.5 4.5t9 2q23 0 42.5 -11.5t31 -31.5t11.5 -43v-640q0 -35 -25 -60t-60 -25zM939 -43h-726v640h214q5 0 10 -2.5t8 -7.5t3 -11q0 -9 -6.5 -15t-14.5 -6h-171v-555h640v555h-43
q-8 0 -14.5 6t-6.5 15q0 4 1.5 8t4.5 7t7 4.5t8 1.5h86v-640zM171 0h-171v555h171v-555zM43 43h85v469h-85v-469zM372 308l56 177l384 384q16 16 38.5 21.5t44.5 0t38 -21.5q25 -25 25 -60.5t-25 -60.5l-384 -384zM466 462l-28 -88l88 28l377 376q12 13 12 30.5t-12 30.5
q-6 6 -14 9t-16.5 3t-16.5 -3t-14 -9zM21 384h128v-43h-128v43zM21 213h128v-42h-128v42zM887.5 712q-8.5 0 -14.5 6l-91 91q-6 6 -6 14.5t6 15.5q15 12 30 0l91 -91q3 -3 4.5 -7t1.5 -8t-1.5 -8t-4.5 -7q-7 -6 -15.5 -6zM767 591q-2 0 -3 1h-4l-2 2q-2 0 -3.5 1t-2.5 2
l-91 91q-6 6 -6 15t6 15q16 12 30 0l91 -91q6 -6 6 -14.5t-6 -15t-15 -6.5zM537.5 362q-8.5 0 -14.5 6l-91 91q-6 6 -6 14.5t6 15.5q3 2 6 3.5t6 2t6.5 0t6.5 -2t5 -3.5l91 -91q6 -6 6 -15t-6.5 -15t-15 -6zM363 277q-9 0 -15.5 6.5t-6.5 15t7 15.5l42 42q6 6 15 6t15 -6
t6 -15t-6 -15l-42 -42q-2 -2 -4.5 -3.5t-5.5 -2.5t-5 -1z" />
    <glyph glyph-name="uniE624" unicode="&#xe624;" 
d="M960 -128h-896q-4 0 -8 1.5t-7 4.5t-4.5 7t-1.5 8v86q0 8 6 14.5t15 6.5t15 -6.5t6 -14.5v-64h854v64q0 5 2.5 10t7.5 8t11 3q9 0 15 -6.5t6 -14.5v-86q0 -8 -6 -14.5t-15 -6.5zM1003 -43h-982q-4 0 -8 2t-7 4.5t-4.5 6.5t-1.5 9v128q0 44 31.5 75t75.5 31h206
q21 15 36.5 30.5t25 33.5t16 34t7 36.5t0.5 36t-6 38t-10 37t-13.5 37.5t-15 35.5t-16.5 35.5q-13 31 -19.5 46t-12.5 35t-6 35q0 50 18 91t48.5 67t68 40t78.5 14q55 0 102.5 -23.5t79 -73t31.5 -115.5q0 -30 -38 -116q-12 -25 -18 -39t-16 -40t-14.5 -42t-9.5 -41
t-3.5 -42t5.5 -39.5t14 -40t26.5 -36t39.5 -34.5h206q44 0 75.5 -31t31.5 -75v-128q0 -9 -6.5 -15.5t-14.5 -6.5zM43 0h938v107q0 13 -5 24.5t-13.5 20.5t-20.5 14t-25 5h-213q-6 0 -12 3q-29 19 -49.5 41.5t-33.5 44t-18.5 48t-7.5 47.5t3.5 50t10 47.5t15.5 47.5
t17.5 43.5t18.5 41.5q35 77 35 98q0 55 -26.5 94.5t-64 57t-80.5 17.5q-68 0 -119.5 -44t-51.5 -125q0 -21 35 -98q12 -27 18.5 -41.5t17.5 -43.5t16 -47.5t10 -47.5t3 -50t-7.5 -47.5t-18 -47.5t-33.5 -44t-50 -42l-12 -3h-213q-18 0 -32.5 -8.5t-23 -23.5t-8.5 -32v-107z
" />
    <glyph glyph-name="uniE625" unicode="&#xe625;" 
d="M107 -43q-2 0 -4 0.5t-4 1.5l-4 2q-2 1 -3 3q-7 6 -7 14.5t7 15.5l573 573q6 6 15 6t15 -6q12 -15 0 -30l-573 -573q-7 -7 -15 -7zM674 818l104 -104l145 77l-77 -145l100 -100l-132 31l-72 -155l-21 167l-167 21l155 72zM674 854q-9 0 -18 -5q-10 -6 -15 -17t-2 -23
l28 -107l-128 -59q-8 -4 -13 -10t-7 -13.5t-1 -15.5l2 -6l2 -4q1 -3 3 -5.5t4 -4.5t5 -4l4 -2q3 -2 6 -3t6 -1l138 -17l18 -139q1 -12 9.5 -21t20.5 -11h6q23 0 33 21l60 128l103 -24q4 -1 8 -1q21 0 32 19q13 24 -6 43l-81 81l64 121q5 11 3.5 22.5t-10.5 20.5
q-10 10 -25 10q-9 0 -17 -4l-121 -64l-85 85q-11 10 -26 10z" />
    <glyph glyph-name="uniE626" unicode="&#xe626;" 
d="M277 -128q-5 0 -10 3t-8 8t-3 10v982q0 9 6 15t15 6t15.5 -6t6.5 -15v-982q0 -9 -6.5 -15t-15.5 -6zM512 -128q-9 0 -15 6t-6 15v982q0 9 6 15t15 6t15 -6t6 -15v-982q0 -9 -6 -15t-15 -6zM747 -128q-9 0 -15.5 6t-6.5 15v982q0 5 3 10t8 8t11 3q9 0 15 -6t6 -15v-982
q0 -9 -6 -15t-15 -6zM1003 597h-982q-9 0 -15 6.5t-6 15.5t6 15t15 6h982q9 0 15 -6t6 -15q0 -5 -1.5 -9t-4.5 -6.5t-7 -4.5t-8 -2zM1003 363h-982q-9 0 -15 6t-6 15t6 15t15 6h982q9 0 15 -6t6 -15q0 -4 -1.5 -8t-4.5 -7t-7 -4.5t-8 -1.5zM1003 128h-982q-3 0 -6.5 1t-6 3
t-4.5 4.5t-3 6t-1 6.5q0 9 6 15.5t15 6.5h982q3 0 6.5 -1t6 -3t4.5 -5t3 -6t1 -7t-1.5 -8t-4.5 -7t-7 -4.5t-8 -1.5z" />
    <glyph glyph-name="uniE627" unicode="&#xe627;" 
d="M896 704h43v-640h-43v640zM192 811h640v-43h-640v43zM107 704h42v-640h-42v640zM192 0h640v-43h-640v43zM213 683h-213v213h213v-213zM43 725h128v128h-128v-128zM1024 683h-213v213h213v-213zM853 725h128v128h-128v-128zM213 -128h-213v213h213v-213zM43 -85h128v128
h-128v-128zM1024 -128h-213v213h213v-213zM853 -85h128v128h-128v-128z" />
    <glyph glyph-name="uniE628" unicode="&#xe628;" 
d="M807 407l120 -121l-30 -30l-121 121zM414 799l121 -120l-30 -31l-121 121zM399 -113q-77 0 -147 29t-124 84q-55 55 -84 126.5t-29 144.5t29 145t84 127l347 347q4 4 9.5 5.5t11 0t9.5 -5.5l121 -121q6 -6 6 -15t-6 -15l-339 -338q-49 -50 -49 -121t49 -121
q25 -24 56 -37t65 -13q71 0 121 50l338 339q2 1 4 2.5t4 2t4.5 1t5 0t4.5 -1t4 -2t4 -2.5l121 -121q3 -3 4.5 -7t1.5 -8q0 -9 -6 -15l-347 -347q-55 -55 -125 -84t-147 -29zM490 844l-332 -331q-66 -66 -89 -154t0 -176t89 -153q100 -100 241.5 -100t241.5 100l331 332
l-90 90l-323 -323q-63 -62 -151 -62t-150.5 62.5t-62.5 151t62 150.5l323 323z" />
    <glyph glyph-name="uniE629" unicode="&#xe629;" 
d="M875 107h-726q-9 0 -15 6t-6 15v469q0 4 1 7t3 6t4.5 5t6 3t6.5 1h64v-43h-42v-427h682v86h43v-107q0 -6 -3 -11t-8 -7.5t-10 -2.5zM1003 277h-726q-3 0 -6.5 1t-6 3t-4.5 5t-3 6t-1 7v469q0 9 6 15t15 6h726q9 0 15 -6t6 -15v-469q0 -9 -6 -15.5t-15 -6.5zM299 320h682
v427h-682v-427zM747 -64h-726q-5 0 -10 3t-8 8t-3 10v470q0 9 6 15t15 6h64v-43h-42v-426h682v85h43v-107q0 -9 -6 -15t-15 -6z" />
    <glyph glyph-name="uniE62A" unicode="&#xe62a;" 
d="M704 469h-341q-44 0 -75.5 31.5t-31.5 75.5v277h555v-277q0 -44 -31.5 -75.5t-75.5 -31.5zM299 811v-235q0 -26 18.5 -45t45.5 -19h341q26 0 45 19t19 45v235h-469zM725 -85h-384v469h384v-469zM384 -43h299v384h-299v-384zM192 43q-44 0 -75.5 31t-31.5 75t31.5 75.5
t75.5 31.5t75.5 -31.5t31.5 -75.5q0 -11 -2.5 -21.5t-6.5 -20t-9.5 -18t-13 -15.5t-16 -13t-18 -10t-20 -6t-21.5 -2zM192 213q-6 0 -11.5 -1t-10.5 -3t-10 -4.5t-9 -6t-7.5 -8t-6.5 -9t-5 -10t-3 -11t-1 -11.5q0 -26 19 -45t45 -19t45 19t19 45.5t-19 45t-45 18.5zM619 64
q-16 0 -21 15l-37 113h-55l-38 -113q-3 -9 -10.5 -13t-16 -1t-12.5 11t-1 16l42 128q5 15 21 15h85q7 0 12.5 -4t7.5 -11l43 -128q1 -4 1 -8.5t-2 -8t-5 -6.5t-8 -4zM341 768h43v-213h-43v213zM427 768h42v-213h-42v213zM512 768h43v-213h-43v213zM597 768h43v-213h-43v213z
M683 768h42v-213h-42v213zM384 491h43v-128h-43v128zM640 491h43v-128h-43v128zM939 85h-171v128h171v-128zM811 128h85v43h-85v-43zM875 -43h-171v43h171q44 0 75 31.5t31 75.5v85q0 14 -3.5 28t-10.5 26t-17 21.5t-21.5 16.5t-25.5 11t-28 4h-171v42h171q30 0 57.5 -11.5
t47.5 -31.5t32 -48t12 -58v-85q0 -16 -3 -30.5t-8.5 -28t-14 -25.5t-18.5 -22t-22 -18t-25 -14t-28 -9t-30 -3zM363 -43h-214q-61 0 -105 44t-44 106v85q0 62 44 105.5t105 43.5h214v-42h-214q-44 0 -75 -31.5t-31 -75.5v-85q0 -44 31 -75.5t75 -31.5h214v-43z" />
    <glyph glyph-name="uniE62B" unicode="&#xe62b;" 
d="M939 64h-137v43h137q17 0 29.5 12.5t12.5 29.5v101l-85 150v347q0 44 -31.5 75t-75.5 31h-554q-44 0 -75.5 -31t-31.5 -75v-347l-85 -150v-101q0 -11 5.5 -21t15.5 -15.5t21 -5.5h135v-43h-135q-35 0 -60 25t-25 60v113l85 149v336q0 61 44 105t106 44h554q62 0 106 -44
t44 -105v-336l85 -149v-113q0 -23 -11.5 -42.5t-31 -31t-42.5 -11.5zM976 -128h-921l37 36q24 25 44 52.5t32 51.5t21.5 49.5t14 43t7 34.5t2.5 23v9v21h22h576v-21q0 -7 0.5 -19t7.5 -45t18.5 -63.5t36 -68.5t57.5 -65zM155 -85h710q-49 56 -70 119.5t-26 114.5h-514
q-14 -128 -100 -234zM512 493q-61 0 -104 43t-43 104t43 104t104 43q40 0 74 -19.5t53.5 -53.5t19.5 -74q0 -20 -5 -39t-14.5 -35t-23.5 -30t-30 -23.5t-35 -14.5t-39 -5zM512 749q-18 0 -34.5 -5.5t-30 -15.5t-23.5 -23.5t-15.5 -30t-5.5 -34.5q0 -45 32 -77t77 -32t77 32
t32 77t-32 77t-77 32zM245 468q-13 0 -22.5 9.5t-9.5 22.5q0 9 4.5 16t12 11.5t15.5 4.5q14 0 23 -9.5t9 -22.5q0 -9 -4 -16t-11.5 -11.5t-16.5 -4.5zM245 511q-3 0 -5 -1.5t-3.5 -4t-1.5 -5.5q0 -4 3 -7.5t7 -3.5q3 0 5.5 1.5t4 4t1.5 5.5q0 4 -3 7.5t-8 3.5zM853 660h-149
v128h149v-128zM747 703h64v42h-64v-42zM448 875h43v-114h-43v114zM533 875h43v-114h-43v114zM448 519h43v-114h-43v114zM533 519h43v-114h-43v114zM107 427h810v-43h-810v43zM21 276h982v-43h-982v43zM85 192h854v-43h-854v43zM174 0h671v-43h-671v43z" />
    <glyph glyph-name="uniE62C" unicode="&#xe62c;" 
d="M1024 -128h-1024v1024h1024v-1024zM43 -85h938v938h-938v-938zM21 171h982v-43h-982v43zM405 512h-128q-23 0 -42.5 11.5t-31 31t-11.5 42.5q0 38 28 63.5t65 21.5q13 39 46 62.5t74 23.5q53 0 90.5 -37.5t37.5 -90.5t-37.5 -90.5t-90.5 -37.5zM277 640q-11 0 -21 -5.5
t-15.5 -15.5t-5.5 -22q0 -17 12.5 -29.5t29.5 -12.5h128q36 0 61 25t25 60t-25 60t-61 25q-31 0 -55 -20t-29 -51l-4 -27l-24 10q-2 1 -4 1l-4 2h-4h-4zM920 140l-151 302q-14 27 -45 27q-29 0 -44 -25l-128 -220q-6 -10 -18 -11q-11 -1 -18 10q-2 1 -3.5 4t-8 11t-13.5 16
t-17.5 18.5t-21 19.5t-24.5 18.5t-27 16t-29 10.5t-31 4q-26 0 -54.5 -22.5t-51.5 -57t-39.5 -64.5t-26.5 -56l-39 16q3 9 8 20.5t17 34.5t25 44.5t31.5 45.5t38 41.5t43.5 29t48 11.5q31 0 61 -11t54.5 -30t42 -35.5t32.5 -34.5l113 193q12 21 33.5 33.5t46.5 12.5
q26 0 48.5 -14t34.5 -37l151 -302z" />
    <glyph glyph-name="uniE62D" unicode="&#xe62d;" 
d="M314 625l-30 30l234 235q6 6 15 6t16 -6l232 -235l-31 -30l-217 219zM1024 -128h-1024v789h1024v-789zM43 -85h938v704h-938v-704zM939 -43h-854v619h854v-619zM128 0h768v533h-768v-533zM581 -35q-7 9 -18.5 23t-38.5 53.5t-50 79.5t-49 97t-41 110q-15 -53 -40.5 -110
t-49 -97t-50.5 -79t-38.5 -53.5t-18.5 -23.5l-33 27q4 5 12.5 16t29.5 41t41 62t44 77.5t41 89t29 95t12 96.5q0 9 6 15.5t15 6.5q4 0 8 -2t7 -4.5t4.5 -6.5t1.5 -9q0 -45 12 -96.5t29 -95.5t41 -89t44 -77t41 -62t29.5 -41t12.5 -16zM277 149h214v-42h-214v42zM811 -21h-43
v128h-43v-128h-42v149q0 6 2.5 11t7.5 7.5t11 2.5h85q6 0 11 -2.5t8 -7.5t3 -11v-149zM811 128h-43v128q0 4 1.5 8t4.5 7t7 4.5t8 1.5h128v-42h-106v-107z" />
    <glyph glyph-name="uniE62E" unicode="&#xe62e;" 
d="M1024 -128h-789v43h746v746h43v-789zM939 -43h-832v43h789v789h43v-832zM811 853v-768h-768v768h768zM853 896h-853v-853h853v853zM210 224l-36 22l128 213q5 9 16 10t18 -7l89 -106l155 232q7 11 20 9.5t17 -14.5l128 -341l-40 -15l-113 302l-148 -221q-6 -9 -16 -9
q-4 0 -7 0.5t-6 2.5t-5 4l-87 105zM256 597q-35 0 -60 25t-25 60.5t25 60.5t60 25q12 0 23 -3t20 -8.5t17 -13.5t13.5 -17.5t8.5 -20.5t3 -22q0 -36 -25 -61t-60 -25zM256 725q-18 0 -30.5 -12.5t-12.5 -30t12.5 -30t30.5 -12.5q7 0 13.5 2t11.5 6t9 9.5t6.5 12t2.5 13.5
q0 17 -12.5 29.5t-30.5 12.5zM0 256h853v-43h-853v43z" />
    <glyph glyph-name="uniE62F" unicode="&#xe62f;" 
d="M704 43h-597q-27 0 -45.5 18.5t-18.5 45.5v384q0 26 18.5 45t45.5 19h597q17 0 32 -8.5t23.5 -23.5t8.5 -32v-384q0 -27 -19 -45.5t-45 -18.5zM107 512q-9 0 -15.5 -6.5t-6.5 -14.5v-384q0 -6 3 -11t8 -8t11 -3h597q9 0 15 6.5t6 15.5v384q0 8 -6 14.5t-15 6.5h-597z
M256 192q-35 0 -60 25t-25 60q0 23 11.5 43t31 31.5t42.5 11.5q35 0 60 -25t25 -60.5t-25 -60.5t-60 -25zM256 320q-7 0 -13.5 -2t-11.5 -6t-9 -9.5t-6.5 -12t-2.5 -13.5q0 -17 12.5 -29.5t30.5 -12.5q12 0 21.5 5.5t15.5 15.5t6 21q0 18 -12.5 30.5t-30.5 12.5zM554.5 192
q-35.5 0 -60.5 25t-25 60q0 23 11.5 43t31.5 31.5t43 11.5q35 0 60 -25t25 -60.5t-25 -60.5t-60.5 -25zM555 320q-6 0 -11.5 -1.5t-10.5 -4.5t-8.5 -6.5t-6.5 -8.5t-4.5 -10.5t-1.5 -11.5q0 -11 5.5 -21t15.5 -15.5t22 -5.5q17 0 29.5 12.5t12.5 30t-12.5 30t-29.5 12.5z
M555 320h-299q-9 0 -15 6t-6 15t6 15.5t15 6.5h299q5 0 10 -3t8 -8t3 -11q0 -9 -6 -15t-15 -6zM491 512q-9 0 -15.5 6t-6.5 15v86q0 8 -6 14.5t-15 6.5h-427q-9 0 -15 6t-6 15t6 15.5t15 6.5h427q17 0 32 -8.5t23.5 -23.5t8.5 -32v-86q0 -3 -1 -5l-2 -6q-1 -2 -3 -4t-4 -3
l-6 -2q-2 -1 -5 -1zM661 512q-9 0 -15 6t-6 15v128q0 18 8.5 32.5t23.5 23t32 8.5h85q9 0 15.5 -6t6.5 -15t-6.5 -15t-15.5 -6h-85q-9 0 -15 -6.5t-6 -15.5v-128q0 -9 -6.5 -15t-15.5 -6zM960 640h-128q-26 0 -45 19t-19 45t19 45t45 19h128q26 0 45 -19t19 -45t-19 -45
t-45 -19zM832 725q-9 0 -15 -6t-6 -15t6 -15t15 -6h128q9 0 15 6t6 15t-6 15t-15 6h-128zM980 97q-5 0 -9 1l-8 2l-225 94q-8 3 -11 11t0 17q2 5 6.5 8.5t10 4t11.5 -1.5l224 -93l2 1v273l-10 21l8 -20l-224 -93q-6 -2 -11.5 -1.5t-10 4t-6.5 8.5q-2 6 -1.5 11.5t4 10
t8.5 6.5l225 93q22 10 41.5 -3.5t19.5 -36.5v-273q0 -24 -20 -37q-5 -3 -11.5 -5t-12.5 -2z" />
    <glyph glyph-name="uniE630" unicode="&#xe630;" 
d="M299 -85q-53 0 -90.5 37.5t-37.5 90.5t37.5 90.5t90.5 37.5h128v-128q0 -25 -10.5 -49t-28 -41t-41 -27.5t-48.5 -10.5zM299 128q-36 0 -61 -25t-25 -60.5t25 -60.5t60.5 -25t60.5 27t25 59v85h-85zM725 43q-53 0 -90.5 37.5t-37.5 90.5t37.5 90.5t90.5 37.5h128v-128
q0 -10 -1.5 -20.5t-5 -19.5t-8 -18t-10.5 -17t-13 -15t-15 -13t-17 -10.5t-18 -8t-19.5 -5t-20.5 -1.5zM725 256q-35 0 -60 -25t-25 -60q0 -23 11.5 -43t31 -31.5t42.5 -11.5q36 0 61 27t25 59v85h-86zM427 149h-43v527l469 188v-587h-42v523l-384 -153v-498zM824 702
l16 -39l-427 -171l-16 40z" />
    <glyph glyph-name="uniE631" unicode="&#xe631;" 
d="M875 320h-43v64q0 132 -94 226t-226 94t-226 -94t-94 -226v-64h-43v64q0 98 49 181.5t132.5 132.5t181.5 49q59 0 114.5 -18.5t100 -52t78 -78t52 -100t18.5 -114.5v-64zM107 21q-44 0 -75.5 31.5t-31.5 75.5t31.5 75.5t75.5 31.5v-43q-11 0 -20.5 -3t-17.5 -9t-14 -14
t-9 -18t-3 -20q0 -26 18.5 -45t45.5 -19v-43zM213 -85h-42q-36 0 -61 25t-25 60v256q0 35 25 60t61 25h42q23 0 43 -11.5t31.5 -31t11.5 -42.5v-256q0 -17 -7 -33t-18.5 -27.5t-27 -18t-33.5 -6.5zM171 299q-18 0 -30.5 -12.5t-12.5 -30.5v-256q0 -18 12.5 -30.5t30.5 -12.5
h42q18 0 30.5 12.5t12.5 30.5v256q0 7 -2 13.5t-6 11.5t-9.5 9t-12 6.5t-13.5 2.5h-42zM917 21v43q27 0 45.5 19t18.5 45q0 17 -8.5 32t-23 23.5t-32.5 8.5v43q44 0 75.5 -31.5t31.5 -75.5q0 -58 -48 -89q-27 -17 -59 -18zM832 -85q-44 0 -75.5 31t-31.5 75v214q0 9 2 18.5
t5 18t8 16.5t10.5 15t12.5 13t15 10.5t16.5 8t18 5t19.5 1.5q44 0 75.5 -31t31.5 -75v-214q0 -44 -31.5 -75t-75.5 -31zM832 299q-26 0 -45 -19t-19 -45v-214q0 -17 8.5 -32t23.5 -23.5t32 -8.5q26 0 45 19t19 45v214q0 13 -5 24.5t-13.5 20.5t-20.5 14t-25 5z" />
    <glyph glyph-name="uniE632" unicode="&#xe632;" 
d="M512 85q-115 0 -196 81.5t-81 196.5v256q0 114 81 195.5t196 81.5t196 -81.5t81 -195.5v-256q0 -118 -85 -200q-81 -77 -192 -78zM512 853q-97 0 -166 -68.5t-69 -165.5v-256q0 -97 69 -166t166 -69t166 69t69 166v256q0 97 -69 165.5t-166 68.5zM512 0q-75 0 -142 28.5
t-115.5 76.5t-77 115.5t-28.5 142.5v85q0 3 1 5.5t2.5 5t3.5 4.5t4 3.5t5 2t6 0.5q9 0 15 -6t6 -15v-85q0 -135 92.5 -227.5t227.5 -92.5t227.5 92.5t92.5 227.5v85q0 6 3 11t8 7.5t10 2.5q22 0 22 -21v-85q0 -75 -28.5 -142.5t-77 -115.5t-115.5 -76.5t-142 -28.5zM491 21
h42v-149h-42v149zM512 725q-9 0 -15 6.5t-6 15.5v128q0 9 6 15t15 6t15 -6t6 -15v-128q0 -9 -6 -15.5t-15 -6.5zM597 725q-9 0 -15 6.5t-6 15.5v113q0 9 6 15t15 6t15.5 -6t6.5 -15v-113q0 -9 -6.5 -15.5t-15.5 -6.5zM427 725q-9 0 -15.5 6.5t-6.5 15.5v113q0 6 3 11t8 7.5
t11 2.5q9 0 15 -6t6 -15v-113q0 -6 -3 -11t-8 -8t-10 -3zM171 384h682v-43h-682v43zM427 597h-171q-9 0 -15 6.5t-6 15.5t6 15t15 6h171q9 0 15 -6t6 -15t-6 -15.5t-15 -6.5zM427 512h-171q-9 0 -15 6t-6 15t6 15.5t15 6.5h171q9 0 15 -6.5t6 -15.5t-6 -15t-15 -6zM768 597
h-171q-9 0 -15 6.5t-6 15.5t6 15t15 6h171q9 0 15 -6t6 -15q0 -6 -2.5 -11t-7.5 -8t-11 -3zM768 512h-171q-9 0 -15 6t-6 15t6 15.5t15 6.5h171q9 0 15 -6.5t6 -15.5q0 -5 -2.5 -10t-7.5 -8t-11 -3zM427 427h-171q-3 0 -6.5 1t-6 3t-4.5 4.5t-3 6t-1 6.5q0 4 1.5 8t4.5 7
t7 4.5t8 1.5h171q9 0 15 -6t6 -15t-6 -15t-15 -6zM768 427h-171q-9 0 -15 6t-6 15q0 6 3 11t8 7.5t10 2.5h171q9 0 15 -6t6 -15q0 -6 -2.5 -11t-7.5 -7.5t-11 -2.5z" />
    <glyph glyph-name="uniE633" unicode="&#xe633;" 
d="M896 811q-18 0 -30.5 -12.5t-12.5 -30.5t12.5 -30.5t30.5 -12.5q9 0 16.5 3.5t13.5 9.5t9.5 13.5t3.5 16.5q0 18 -12.5 30.5t-30.5 12.5zM128 811q-12 0 -21.5 -6t-15.5 -15.5t-6 -21.5q0 -18 12.5 -30.5t30.5 -12.5q6 0 11.5 1.5t10 4.5t8.5 7t7 8.5t4.5 10t1.5 11.5
q0 18 -12.5 30.5t-30.5 12.5zM896 43q-18 0 -30.5 -12.5t-12.5 -30.5t12.5 -30.5t30.5 -12.5t30.5 12.5t12.5 30.5t-12.5 30.5t-30.5 12.5zM128 43q-18 0 -30.5 -12.5t-12.5 -30.5t12.5 -30.5t30.5 -12.5q12 0 21.5 6t15.5 15.5t6 21.5q0 18 -12.5 30.5t-30.5 12.5zM512 277
q-44 0 -75.5 31.5t-31.5 75.5t31.5 75.5t75.5 31.5t75.5 -31.5t31.5 -75.5t-31.5 -75.5t-75.5 -31.5zM512 448q-26 0 -45 -19t-19 -45t19 -45t45 -19t45 19t19 45t-19 45t-45 19zM512 0q-159 0 -271.5 112.5t-112.5 271.5t112.5 271.5t271.5 112.5t271.5 -112.5
t112.5 -271.5t-112.5 -271.5t-271.5 -112.5zM512 725q-138 0 -238 -96q-98 -96 -103 -233v-12q0 -93 45.5 -171.5t124 -124t171.5 -45.5t171.5 45.5t124 124t45.5 171.5t-45.5 171.5t-124 124t-171.5 45.5zM896 -128q-26 0 -49 9.5t-41 27.5l-66 66q-52 -30 -110 -45
t-118 -15q-122 0 -228 60l-66 -66q-12 -12 -26.5 -20t-30.5 -12.5t-33 -4.5q-53 0 -90.5 37.5t-37.5 90.5t38 90l65 66q-30 52 -45 110t-15 118q0 122 60 228l-65 65q-38 38 -38 91t37.5 90.5t90.5 37.5t90 -38l66 -65q106 60 228 60t228 -60l66 65q18 19 41 28.5t49 9.5
t49 -9.5t41 -28.5q38 -37 38 -90t-38 -91l-65 -65q30 -52 45 -110t15 -118q0 -122 -60 -228l65 -65q38 -38 38 -91t-37.5 -90.5t-90.5 -37.5zM747 28l89 -88q12 -12 27.5 -18.5t32.5 -6.5q35 0 60 25t25 60t-25 60l-88 89l9 14q62 103 62 221t-62 221l-9 14l88 89
q12 12 18.5 27.5t6.5 32.5q0 35 -25 60t-60 25t-60 -25l-89 -88l-14 9q-50 30 -106.5 46t-114.5 16q-119 0 -221 -62l-14 -9l-89 88q-25 25 -60 25t-60 -25q-12 -12 -18.5 -27.5t-6.5 -32.5q0 -35 25 -60l88 -89l-9 -14q-62 -102 -62 -221t62 -221l9 -14l-88 -89
q-8 -8 -14 -17.5t-8.5 -20.5t-2.5 -22q0 -35 25 -60t60 -25t60 25l89 88l14 -9q102 -62 221 -62t221 62z" />
    <glyph glyph-name="uniE634" unicode="&#xe634;" 
d="M491 -128q-6 0 -9 2l-448 213q-12 6 -12 19v661q0 12 10 18q3 2 6.5 3t7 0.5t6.5 -2.5l439 -208l438 208q2 1 4 1.5t4 0.5h5q2 0 4 -1l4 -2q10 -6 10 -18v-661q0 -3 -1 -5.5t-2.5 -5t-4 -5t-5.5 -3.5l-447 -213q-4 -2 -9 -2zM64 120l427 -203l426 203v613l-417 -198
q-9 -5 -18 0l-418 198v-613zM491 636l-372 177q-8 4 -11 12t1 16t12.5 11t15.5 -1l354 -168l353 168q8 4 16 1t12 -11t1 -16t-11 -12zM469 554h43v-661h-43v661z" />
    <glyph glyph-name="uniE635" unicode="&#xe635;" 
d="M491 -128h-342q-44 0 -75 31.5t-31 75.5v810q0 9 6 15.5t15 6.5t15 -6.5t6 -15.5v-810q0 -27 19 -45.5t45 -18.5h342q2 0 4.5 -0.5t4.5 -2t4 -2.5t3.5 -3t2.5 -4t1.5 -4.5t0.5 -5.5q0 -9 -6 -15t-15 -6zM875 405q-6 0 -11 3t-8 8t-3 11v256h-704q-29 0 -53.5 14
t-38.5 38.5t-14 53.5q0 44 31 75.5t75 31.5h726q9 0 15 -6t6 -15t-6 -15.5t-15 -6.5h-726q-26 0 -45 -18.5t-19 -45t19 -45.5t45 -19h747v-298q0 -9 -6 -15.5t-15 -6.5zM725 -128q-106 0 -181 75t-75 181t75 181t181 75t181 -75t75 -181t-75 -181t-181 -75zM725 341
q-88 0 -150.5 -62.5t-62.5 -150.5t62.5 -150.5t151 -62.5t151 62.5t62.5 150.5q0 58 -29 107t-78 77.5t-107 28.5zM725 0q-9 0 -15 6t-6 15v214q0 9 6 15t15 6t15.5 -6t6.5 -15v-214q0 -9 -6.5 -15t-15.5 -6zM725 -9l-100 101q-6 6 -6 14.5t6 15t15 6.5t15 -6l70 -71l71 71
q6 6 14.5 6t15.5 -6q12 -16 0 -30zM149 811h704v-43h-704v43z" />
    <glyph glyph-name="uniE636" unicode="&#xe636;" 
d="M512 -107q-6 0 -11 3q-2 1 -5.5 3.5t-13.5 8.5t-20.5 13t-26 17t-31 21.5t-34.5 25.5t-37.5 29t-39.5 33t-41 36q-252 234 -252 455q0 71 22.5 128t60 91t82.5 51.5t93 17.5q78 0 148 -45t106 -131q18 44 47 78.5t63 55t70.5 31.5t73.5 11q48 0 93 -17.5t82.5 -51.5
t60 -91t22.5 -128q0 -221 -252 -455q-55 -50 -119 -98t-90 -64t-40 -25q-2 -1 -4 -1.5t-3.5 -1t-3.5 -0.5zM258 783q-95 0 -157 -70q-58 -68 -58 -175q0 -61 22.5 -124.5t57 -116t83 -105.5t91.5 -91.5t91.5 -75t74.5 -54.5t49 -31q19 11 41 26t62 43.5t77 61t80.5 73.5
t79.5 86.5t66 94.5t46.5 104.5t16.5 108.5q0 49 -12.5 90t-33.5 69t-49 48t-58.5 29t-61.5 9q-50 0 -96.5 -21.5t-85 -71t-51.5 -118.5q-3 -17 -21 -17t-21 17q-13 69 -51.5 118.5t-85 71t-96.5 21.5z" />
    <glyph glyph-name="uniE637" unicode="&#xe637;" 
d="M895 85h-766l-5 4q-58 39 -91 100t-33 131q0 115 81.5 196t195.5 81q68 0 127 -30l-19 -38q-51 26 -108 26q-103 0 -173 -77q-61 -68 -61 -158q0 -57 26.5 -108t73.5 -84h738q47 33 73.5 84t26.5 108q0 97 -68.5 166t-165.5 69q-57 0 -108 -26l-19 37q59 31 127 31
q75 0 139 -37t101 -101t37 -139q0 -70 -33 -131t-91 -100zM896 -128h-768q-27 0 -46.5 12.5t-29 31.5t-9.5 41q0 35 22.5 60.5t62.5 25.5h768q27 0 46.5 -13t29 -32t9.5 -41q0 -34 -22.5 -59.5t-62.5 -25.5zM128 0q-21 0 -31.5 -13t-10.5 -30q0 -10 3.5 -19.5t13.5 -16
t25 -6.5h768q21 0 31.5 12.5t10.5 29.5t-10.5 30t-31.5 13h-768zM271 213q-15 0 -20 14q-16 45 -16 93q0 115 81 196t196 81q75 0 139 -37t101 -101t37 -139q0 -24 -4 -47t-12 -46q-3 -8 -11 -12t-16 -1t-12 11t-1 17q14 37 14 78q0 97 -69 166t-166 69t-166 -69t-69 -166
q0 -20 3.5 -40t10.5 -39q3 -8 -1 -16t-12 -11q-3 -1 -7 -1zM512 640q-53 0 -90.5 37.5t-37.5 90.5t37.5 90.5t90.5 37.5t90.5 -37.5t37.5 -90.5t-37.5 -90.5t-90.5 -37.5zM512 853q-12 0 -23 -3t-20 -8.5t-17 -13.5t-13.5 -17t-8.5 -20t-3 -23q0 -35 25 -60t60 -25
q23 0 42.5 11.5t31 31t11.5 42.5t-11.5 42.5t-31 31t-42.5 11.5zM619 747h-214q-9 0 -15 6t-6 15t6 15t15 6h214q9 0 15 -6t6 -15t-6 -15t-15 -6zM512 555q-6 0 -11 2.5t-7.5 7.5t-2.5 11v85q0 9 6 15.5t15 6.5t15 -6.5t6 -15.5v-85q0 -9 -6 -15t-15 -6z" />
    <glyph glyph-name="uniE638" unicode="&#xe638;" 
d="M512 -128q-104 0 -199 40.5t-163.5 109t-109 163.5t-40.5 199t40.5 199t109 163.5t163.5 109t199 40.5t199 -40.5t163.5 -109t109 -163.5t40.5 -199t-40.5 -199t-109 -163.5t-163.5 -109t-199 -40.5zM512 853q-95 0 -182 -37t-150 -100t-100 -150t-37 -182t37 -182
t100 -150t150 -100t182 -37t182 37t150 100t100 150t37 182t-37 182t-100 150t-150 100t-182 37zM512 0q-93 0 -171.5 45.5t-124 124.5t-45.5 171q0 4 1 7t3 6t4.5 5t6 3t6.5 1q9 0 15 -6.5t6 -15.5q0 -123 87.5 -210.5t211.5 -87.5q81 0 150 40t109 108.5t40 149.5
q0 9 6 15.5t15 6.5q4 0 8 -2t7 -4.5t4.5 -6.5t1.5 -9q0 -92 -45.5 -171t-124 -124.5t-171.5 -45.5zM405 448q-9 0 -15 6t-6 15q0 18 -8.5 32.5t-23.5 23t-32 8.5q-26 0 -45 -18.5t-19 -45.5q0 -17 -17 -20l-4 -1q-9 0 -15.5 6t-6.5 15q0 44 31.5 75.5t75.5 31.5
q17 0 33.5 -5.5t29.5 -15.5t23 -23t15.5 -29t5.5 -34q0 -9 -6.5 -15t-15.5 -6zM789 448q-9 0 -15 6t-6 15q0 18 -8.5 32.5t-23.5 23t-32 8.5q-26 0 -45 -18.5t-19 -45.5q0 -9 -6 -15t-15 -6t-15.5 6t-6.5 15q0 29 14.5 53.5t39 39t53.5 14.5t53.5 -14.5t39 -39t14.5 -53.5
q0 -9 -6.5 -15t-15.5 -6z" />
    <glyph glyph-name="uniE639" unicode="&#xe639;" 
d="M512 597q-62 0 -105.5 44t-43.5 105.5t43.5 105.5t105.5 44t105.5 -44t43.5 -105q0 -41 -20 -75.5t-54.5 -54.5t-74.5 -20zM512 853q-14 0 -28 -3.5t-26 -10.5t-21.5 -17t-16.5 -21.5t-11 -25.5t-4 -28q0 -44 31.5 -75.5t75.5 -31.5t75.5 31.5t31.5 75.5t-31.5 75
t-75.5 31zM576 85h-128q-3 0 -5.5 1t-5 2.5t-4.5 3.5t-3.5 4t-2 5t-0.5 6v170q-34 17 -59.5 49.5t-40 71t-21.5 78t-7 79.5q0 9 6 15t15 6h384q9 0 15 -6t6 -15q0 -40 -7 -79.5t-21.5 -78t-40 -71t-59.5 -49.5v-170q0 -3 -1 -5v-4q-1 -2 -2 -3.5t-2.5 -3t-3.5 -2.5l-4 -2
q-2 -1 -4 -1.5t-4 -0.5zM469 128h86v162q0 7 3.5 12t9.5 8q29 12 51.5 38t35 59t19 64t8.5 62h-340q2 -31 8.5 -62t19 -64t35 -59t51.5 -38q13 -6 13 -20v-162zM512 -21q-50 0 -101 4.5t-102.5 14.5t-84 30t-32.5 47q0 56 145 82q9 1 16.5 -4t8.5 -13q1 -5 0 -9t-3.5 -7.5
t-6 -5.5t-7.5 -3q-39 -7 -66 -16.5t-35 -15t-9 -9.5q1 -4 10.5 -9.5t25.5 -11.5t40.5 -11.5t53.5 -10t67.5 -7.5t79.5 -3q80 0 145.5 10t97 22t34.5 22q-1 3 -9 8.5t-35 15t-65 16.5q-9 1 -14 8.5t-4 15.5q1 4 2.5 7t4 5t5.5 3.5t6.5 2t6.5 0.5q145 -26 145 -82
q0 -27 -32.5 -47t-84 -30t-102.5 -14.5t-101 -4.5zM512 -128q-235 0 -373.5 58t-138.5 134q0 36 29.5 67.5t79 53.5t107.5 37t123 23q8 1 15 -4t8.5 -14t-4 -16t-14.5 -8q-140 -18 -220.5 -58.5t-80.5 -80.5q0 -21 21.5 -42.5t64 -40.5t98.5 -34t130.5 -23.5t154.5 -8.5
q100 0 189.5 13t149.5 34.5t95 48t35 53.5q0 26 -33 52.5t-103 50.5t-165 36q-9 1 -14.5 8t-4 16t8.5 14t16 4q64 -8 122 -23t107.5 -37t79 -53.5t29.5 -67.5q0 -76 -138.5 -134t-373.5 -58z" />
    <glyph glyph-name="uniE63A" unicode="&#xe63a;" 
d="M301 -7q-30 0 -57.5 11.5t-48.5 32.5l-30 30q-44 44 -44 106t44 105l196 196q21 22 48.5 33t57.5 11q62 0 105 -44l30 -30q5 -4 6 -9.5t0 -11t-5.5 -9.5t-10 -5.5t-11 0t-9.5 5.5l-30 30q-31 32 -75 32t-76 -32l-196 -196q-31 -31 -31 -75t31 -76l30 -30q32 -31 76 -31
q21 0 40.5 8t34.5 23l136 136q6 6 15 6t15 -6q12 -15 0 -30l-136 -136q-14 -14 -31 -24t-35.5 -15t-38.5 -5zM557 250q-62 0 -105 44q-7 6 -7 14.5t7 15.5q2 2 5 3.5t6.5 2t6.5 0t6 -2t6 -3.5q31 -32 75 -32t76 32l196 196q31 31 31 75t-31 76l-30 30q-32 31 -76 31t-75 -31
l-136 -136q-2 -2 -5.5 -4t-6.5 -2h-6q-4 0 -7 2t-5 4q-6 6 -6 15t6 15l136 136q21 21 49 32.5t56 11.5t56 -11.5t50 -32.5l30 -30q44 -44 44 -106t-44 -105l-196 -196q-21 -22 -48.5 -33t-57.5 -11z" />
    <glyph glyph-name="uniE63B" unicode="&#xe63b;" 
d="M512 256zM469 256q0 12 6 21.5t15.5 15.5t21.5 6q9 0 16.5 -3.5t13.5 -9.5t9.5 -13.5t3.5 -16.5q0 -3 -0.5 -6.5t-2 -7t-3 -6.5t-3 -5.5t-4 -5t-5 -4t-5.5 -3t-6.5 -3t-7 -2t-6.5 -0.5q-18 0 -30.5 12.5t-12.5 30.5zM512 85q-4 0 -8 2t-7 4.5t-4.5 6.5t-1.5 9v128
q0 9 6 15t15 6t15 -6t6 -15v-128q0 -9 -6 -15.5t-15 -6.5zM896 -128h-768v640h768v-640zM171 -85h682v554h-682v-554zM768 491h-43v149q0 88 -62.5 150.5t-150.5 62.5t-150.5 -62.5t-62.5 -150.5v-149h-43v149q0 106 75 181t181 75t181 -75t75 -181v-149z" />
    <glyph glyph-name="uniE63C" unicode="&#xe63c;" 
d="M512 256zM469 256q0 12 6 21.5t15.5 15.5t21.5 6q9 0 16.5 -3.5t13.5 -9.5t9.5 -13.5t3.5 -16.5q0 -3 -0.5 -6.5t-2 -7t-3 -6.5t-3 -5.5t-4 -5t-5 -4t-5.5 -3t-6.5 -3t-7 -2t-6.5 -0.5q-18 0 -30.5 12.5t-12.5 30.5zM512 85q-4 0 -8 2t-7 4.5t-4.5 6.5t-1.5 9v128
q0 9 6 15t15 6t15 -6t6 -15v-128q0 -9 -6 -15.5t-15 -6.5zM896 -128h-768v640h768v-640zM171 -85h682v554h-682v-554zM768 491h-43v149q0 88 -62.5 150.5t-150.5 62.5t-150.5 -62.5t-62.5 -150.5h-43q0 106 75 181t181 75t181 -75t75 -181v-149z" />
    <glyph glyph-name="uniE63D" unicode="&#xe63d;" 
d="M875 -128h-726v875h726v-875zM192 -85h640v789h-640v-789zM747 704h-470v171h470v-171zM320 747h384v85h-384v-85zM341 21q-9 0 -15 6.5t-6 15.5v533q0 9 6 15t15 6t15.5 -6t6.5 -15v-533q0 -9 -6.5 -15.5t-15.5 -6.5zM512 21q-4 0 -8 2t-7 4.5t-4.5 6.5t-1.5 9v533
q0 9 6 15t15 6t15 -6t6 -15v-533q0 -6 -2.5 -11t-7.5 -8t-11 -3zM683 21q-9 0 -15.5 6.5t-6.5 15.5v533q0 9 6.5 15t15.5 6q5 0 10 -2.5t8 -7.5t3 -11v-533q0 -6 -3 -11t-8 -8t-10 -3zM0 747h1024v-43h-1024v43z" />
    <glyph glyph-name="uniE63E" unicode="&#xe63e;" 
d="M704 -85q-6 0 -11 2.5t-7.5 7.5t-2.5 11v235h21q39 0 74.5 15t61.5 41t41 61.5t15 74.5v106q0 104 -51.5 192.5t-140 140t-192.5 51.5t-192.5 -51.5t-140 -140t-51.5 -192.5v-106q0 -39 15 -74.5t41 -61.5t61.5 -41t74.5 -15h21v-235q0 -4 -1.5 -8t-4.5 -7t-7 -4.5
t-8 -1.5q-2 0 -4 1h-4l-4 2t-3.5 2.5t-2.5 3.5l-2 4v4q-1 2 -1 4v193q-22 2 -43.5 8t-40.5 15.5t-36.5 22.5t-31.5 29t-25.5 34t-19.5 38t-12.5 42t-4.5 45v106q0 116 57.5 214.5t155.5 155.5t214 57t214 -57t155.5 -155.5t57.5 -214.5v-106q0 -60 -28.5 -112t-77.5 -84.5
t-108 -37.5v-193q0 -9 -6 -15t-15 -6zM448 -85q-4 0 -8 1.5t-7 4.5t-4.5 7t-1.5 8v213q0 9 6 15.5t15 6.5q2 0 4.5 -0.5t4.5 -2t4 -2.5t3.5 -3t2.5 -4t1.5 -4.5t0.5 -5.5v-213q0 -4 -1.5 -8t-4.5 -7t-7 -4.5t-8 -1.5zM576 -85q-6 0 -11 2.5t-7.5 7.5t-2.5 11v213q0 9 6 15.5
t15 6.5q4 0 8 -2t7 -4.5t4.5 -6.5t1.5 -9v-213q0 -9 -6 -15t-15 -6zM704 213q-24 0 -47 7.5t-41.5 21.5t-32 32.5t-21 41t-7.5 47.5q0 61 43.5 105t105.5 44t105.5 -44t43.5 -105q0 -31 -11.5 -58.5t-31.5 -47.5t-48 -32t-58 -12zM704 469q-44 0 -75.5 -31t-31.5 -75
q0 -18 5.5 -34t15.5 -29t23 -23t29.5 -15.5t33.5 -5.5q44 0 75.5 31.5t31.5 75.5t-31.5 75t-75.5 31zM320 213q-30 0 -58 12t-48 32t-31.5 47.5t-11.5 58.5q0 61 43.5 105t105.5 44t105.5 -44t43.5 -105q0 -31 -11.5 -58.5t-31.5 -47.5t-48 -32t-58 -12zM320 469
q-44 0 -75.5 -31t-31.5 -75t31.5 -75.5t75.5 -31.5t75.5 31.5t31.5 75.5t-31.5 75t-75.5 31zM112 512q-9 0 -15.5 6t-6.5 15q0 6 3 11t8 8t11 3q23 0 47 8t46.5 25t36.5 47t14 69q0 9 6 15t15 6t15.5 -6t6.5 -15q0 -89 -56 -140.5t-131 -51.5zM912 512q-75 0 -131 51.5
t-56 140.5q0 9 6.5 15t15.5 6q5 0 10 -2.5t8 -7.5t3 -11q0 -26 6.5 -49t18 -38.5t26 -28t31 -19.5t32 -10.5t30.5 -3.5q9 0 15.5 -6.5t6.5 -15.5t-6.5 -15t-15.5 -6zM534 213h-1h-42q-12 0 -18.5 10.5t-0.5 20.5l21 43q2 3 5 5.5t6.5 4t7.5 1.5t7.5 -1.5t6.5 -4t5 -5.5
l20 -39q4 -7 4 -13t-3 -11t-7.5 -8t-10.5 -3z" />
    <glyph glyph-name="uniE63F" unicode="&#xe63f;" 
d="M661 512h-298v213h298v-213zM405 555h214v128h-214v-128zM875 -128h-768v1024h768v-1024zM149 -85h683v938h-683v-938zM853 619h107v-43h-107v43zM853 448h107v-43h-107v43zM853 277h107v-42h-107v42zM896 64h-43v43h43q18 0 30.5 12.5t12.5 29.5v555q0 9 -3.5 16.5
t-9.5 13.5t-13.5 9.5t-16.5 3.5h-43v42h43q23 0 42.5 -11.5t31 -31t11.5 -42.5v-555q0 -23 -11.5 -42.5t-31 -31t-42.5 -11.5zM64 725h128v-42h-128v42zM64 597h128v-42h-128v42zM64 469h128v-42h-128v42zM64 341h128v-42h-128v42zM64 213h128v-42h-128v42zM64 85h128v-42
h-128v42z" />
    <glyph glyph-name="uniE640" unicode="&#xe640;" 
d="M679 661h-376q-51 0 -83 40l-130 160q-8 11 -2.5 23t19.5 12h768q4 0 7.5 -1.5t6.5 -4t5 -6.5q6 -12 -3 -23l-129 -160q-32 -40 -83 -40zM151 853l102 -125q9 -12 22 -18t28 -6h376q30 0 50 24l101 125h-679zM875 -128h-768q-6 0 -11.5 3t-7.5 9q-6 11 1 22l107 149
q6 9 17 9h555q5 0 9.5 -2.5t7.5 -6.5l105 -146q1 -2 2.5 -3.5t2.5 -3.5t1 -4v-5t-2.5 -10t-7.5 -8t-11 -3zM148 -85h685l-76 106h-533zM469 704h43v-683h-43v683zM85 896h43v-1024h-43v1024zM853 896h43v-1024h-43v1024z" />
    <glyph glyph-name="uniE641" unicode="&#xe641;" 
d="M939 -85h-854q-35 0 -60 25t-25 60v555q0 35 25 60t60 25h854q23 0 42.5 -11.5t31 -31t11.5 -42.5v-555q0 -23 -11.5 -42.5t-31 -31t-42.5 -11.5zM85 597q-11 0 -21 -5.5t-15.5 -15.5t-5.5 -21v-555q0 -18 12.5 -30.5t29.5 -12.5h854q17 0 29.5 12.5t12.5 30.5v555
q0 11 -5.5 21t-15.5 15.5t-21 5.5h-854zM683 704h-43v43q0 8 -6.5 14.5t-14.5 6.5h-214q-8 0 -14.5 -6.5t-6.5 -14.5v-43h-43v43q0 26 19 45t45 19h214q7 0 14 -2t13.5 -5t12 -7.5t10 -10t7.5 -12t5 -13.5t2 -14v-43zM853 427h-704q-9 0 -15 6t-6 15q5 18 21 21h704
q6 0 11 -2.5t8 -7.5t3 -11q0 -9 -6.5 -15t-15.5 -6zM853 256h-704q-9 0 -15 6t-6 15q0 4 1 7t3 6t4.5 5t6 3t6.5 1h704q9 0 15.5 -6.5t6.5 -15.5t-6.5 -15t-15.5 -6zM853 85h-704q-4 0 -8 2t-7 4.5t-4.5 6.5t-1.5 9q0 3 1 5l2 6q1 2 3 4t4 3l6 2q2 1 5 1h704q9 0 15.5 -6
t6.5 -15q0 -6 -3 -11t-8 -8t-11 -3zM341 704h43v-85h-43v85zM640 704h43v-85h-43v85zM363 725h298v-42h-298v42z" />
    <glyph glyph-name="uniE642" unicode="&#xe642;" 
d="M491 -128q-3 0 -6 1q-76 21 -140.5 51.5t-106 60.5t-75 64.5t-50.5 60.5t-29.5 53t-15 37t-4.5 17v3v632q0 15 13 20q4 2 8.5 2t8 -1.5t6.5 -5.5q74 -73 178 -73q57 0 108.5 24.5t87.5 69.5q6 8 17 8t17 -8q18 -22 40 -40t47 -30t52.5 -18t55.5 -6q51 0 96.5 19t81.5 54
q4 5 10.5 6.5t12.5 -1.5q13 -5 13 -20v-632v-3q-1 -7 -4 -17t-15 -37t-29.5 -53t-50.5 -60.5t-75 -64.5t-106 -60.5t-141 -51.5q-2 -1 -5 -1zM107 223q13 -56 63 -117q106 -129 321 -191q215 62 321 191q50 62 63 117v583q-77 -55 -172 -55q-60 0 -115.5 24t-96.5 68
q-42 -44 -97.5 -68t-115.5 -24q-95 0 -171 55v-583zM576 149h-171v171h-170v171h170v170h171v-170h171v-171h-171v-171zM448 192h85v171h171v85h-171v171h-85v-171h-171v-85h171v-171z" />
    <glyph glyph-name="uniE643" unicode="&#xe643;" 
d="M939 43h-854q-35 0 -60 25t-25 60v512q0 35 25 60t60 25h854q23 0 42.5 -11.5t31 -31t11.5 -42.5v-512q0 -48 -42 -73q-20 -12 -43 -12zM85 683q-17 0 -29.5 -12.5t-12.5 -30.5v-512q0 -7 2 -13.5t6 -11.5t9 -9t11.5 -6.5t13.5 -2.5h854q17 0 29.5 12.5t12.5 30.5v512
q0 12 -5.5 21.5t-15.5 15.5t-21 6h-854zM512 273l-374 242q-5 4 -7.5 9t-2.5 10.5t3 10.5q5 7 13.5 9t16.5 -3l351 -227l351 227q8 5 16.5 3t13 -9.5t3 -16t-9.5 -13.5zM128 171q-11 0 -18 9q-5 8 -3 16.5t9 13.5l192 128q8 5 16.5 3t13.5 -9.5t3 -16t-9 -13.5l-192 -128
q-3 -2 -6 -2.5t-6 -0.5zM896 171q-6 0 -12 3l-192 128q-7 5 -9 13.5t3 16.5q3 5 8.5 7.5t11 2t10.5 -3.5l192 -128q7 -5 9 -13.5t-3 -16.5q-7 -9 -18 -9z" />
    <glyph glyph-name="uniE644" unicode="&#xe644;" 
d="M128 -73v201h-64q-26 0 -45 19t-19 45v555q0 26 19 45t45 19h896q17 0 32 -8.5t23.5 -23.5t8.5 -32v-555q0 -26 -19 -45t-45 -19h-631zM64 768q-4 0 -8 -1.5t-7 -4.5t-4.5 -7t-1.5 -8v-555q0 -9 6 -15t15 -6h107v-141l140 141h649q6 0 11 2.5t7.5 7.5t2.5 11v555
q0 8 -6 14.5t-15 6.5h-896zM341 469zM299 469.5q0 17.5 12.5 30t30 12.5t30 -12.5t12.5 -30.5q0 -29 -27 -39q-8 -3 -16 -3q-17 0 -29.5 12.5t-12.5 30zM683 469zM640 469.5q0 17.5 12.5 30t30 12.5t30 -12.5t12.5 -30t-12.5 -30t-30 -12.5t-30 12.5t-12.5 30zM512 469z
M469 469q0 9 3.5 17t9.5 13.5t13.5 9t16.5 3.5t16.5 -3.5t13.5 -9t9.5 -13.5t3.5 -17q0 -11 -6 -21t-15.5 -15.5t-21.5 -5.5q-18 0 -30.5 12.5t-12.5 29.5z" />
    <glyph glyph-name="uniE645" unicode="&#xe645;" 
d="M512 144q-6 1 -11 3q-4 2 -10 6t-21.5 14t-31 21.5t-36 27.5t-39 34t-38 39t-35.5 44t-28.5 47.5t-19.5 52t-7 53.5q0 51 22 88.5t55.5 55t72.5 17.5q24 0 47 -7.5t44.5 -24t35.5 -40.5q21 36 56.5 54.5t73.5 18.5q22 0 43.5 -6t40 -18.5t33 -29.5t22.5 -42t8 -53
q0 -48 -27.5 -102t-61.5 -93.5t-79 -79t-64.5 -53.5t-32.5 -23q-5 -4 -12 -4zM385 604q-43 0 -75.5 -30.5t-32.5 -87.5q0 -39 20.5 -81t47.5 -74t63.5 -63.5t59 -47.5t43.5 -29q21 15 43.5 33t59.5 52.5t64.5 68t48 75.5t20.5 79q0 51 -31.5 79t-73.5 28q-23 0 -45 -9
t-40.5 -32t-23.5 -57q0 -3 -1.5 -6t-3.5 -5t-4.5 -3.5t-5.5 -2.5t-6 -1q-8 0 -14 5t-7 13q-5 34 -23 56.5t-39 31t-44 8.5zM58 -101q-4 0 -8 1.5t-7 5.5q-11 10 -4 24l103 205q-69 59 -105.5 134t-36.5 158q0 114 68.5 211t186.5 153.5t257 56.5q104 0 199 -33.5t163.5 -90
t109 -134.5t40.5 -163q0 -155 -122 -273q-123 -119 -309 -144q-41 -5 -81 -5q-88 0 -170 24l-275 -128q-2 -1 -4.5 -1.5t-4.5 -0.5zM512 806q-76 0 -148 -19.5t-129.5 -54.5t-101 -81.5t-67 -104.5t-23.5 -119q0 -51 16 -99t47 -91.5t76 -79.5q13 -10 6 -26l-83 -165
l226 105q2 1 5 1.5t5.5 0.5t4.5 -1q80 -24 166 -24q95 0 182 30t150 80.5t100 121t37 147.5q0 102 -62.5 189.5t-171 138.5t-235.5 51z" />
    <glyph glyph-name="uniE646" unicode="&#xe646;" 
d="M683 299q-5 0 -9 1q-13 6 -13 20v149h-64q-9 0 -15 6.5t-6 15.5t6 15t15 6h86q9 0 15 -6t6 -15v-120l134 135q6 6 15 6h128v341h-597v-149q0 -9 -6 -15t-15 -6t-15.5 6t-6.5 15v171q0 9 6.5 15t15.5 6h640q9 0 15 -6t6 -15v-384q0 -5 -1.5 -9t-4.5 -6.5t-7 -4.5t-8 -2
h-141l-164 -164q-2 -2 -4.5 -3.5t-5.5 -2t-5 -0.5zM683 -128h-683v85q0 39 22.5 70.5t58.5 44.5l155 55v77h42v-107l-182 -65q-24 -9 -38.5 -29.5t-14.5 -45.5v-42h597v42q0 25 -14.5 45.5t-38.5 29.5l-183 65v113h43v-83l154 -55q37 -13 59.5 -44.5t22.5 -70.5v-85z
M337.5 158q-78.5 0 -134.5 65.5t-56 158t56 158t134.5 65.5t134 -65.5t55.5 -158t-55.5 -158t-134 -65.5zM337 563q-17 0 -33.5 -5t-31 -14t-27.5 -21.5t-23 -28t-17 -33.5t-11 -38t-4 -41q0 -75 43 -128t104 -53q40 0 74 24t53.5 66t19.5 91q0 75 -43 128t-104 53zM460 374
q-59 0 -99 53q-23 -22 -57 -36t-68 -14q-40 0 -75 18l20 38q13 -7 26.5 -10t28.5 -3q31 0 64 16t44 37l18 35l19 -34q21 -37 44.5 -49t59.5 -5h13h1l3 1l5 -43h-4h-6h-1h-3q-9 -2 -17 -3t-16 -1zM789 683q-9 0 -15 -6.5t-6 -15.5q0 -5 3 -10t8 -8t10 -3q9 0 15.5 6t6.5 15
q0 4 -1 7t-3 6t-5 5t-6 3t-7 1zM683 683q-9 0 -15.5 -6.5t-6.5 -15.5q0 -5 3 -10t8 -8t11 -3q9 0 15 6t6 15t-6 15.5t-15 6.5zM576 683q-9 0 -15 -6.5t-6 -15.5t6 -15t15 -6t15 6t6 15t-6 15.5t-15 6.5z" />
    <glyph glyph-name="uniE647" unicode="&#xe647;" 
d="M513 256q-75 0 -138.5 43t-101 116.5t-37.5 160.5t37.5 160.5t101 116.5t138.5 43t138.5 -43t100.5 -116.5t37 -160.5t-37 -160.5t-100.5 -116.5t-138.5 -43zM513 853q-97 0 -165.5 -81t-68.5 -196t68.5 -196t165.5 -81q63 0 117 37t85.5 101t31.5 139t-31.5 139
t-85.5 101t-117 37zM1024 -128h-1024v144q0 48 27.5 86.5t71.5 54.5l264 73v88h42v-121l-293 -81q-30 -11 -49.5 -38.5t-19.5 -61.5v-101h938v101q0 34 -19.5 62t-51.5 39l-291 80v120h42v-87l262 -72q45 -17 73 -55.5t28 -86.5v-144zM700 614h-5q-17 1 -36.5 6.5
t-37.5 15.5t-35 23t-30 28q-38 -48 -105 -59q-53 -9 -111 5.5t-80 36.5l30 31q13 -13 61 -26t93 -5q64 11 92 65l17 36l20 -35q18 -31 54.5 -54.5t69.5 -24.5q29 -1 42 18l35 -24q-25 -37 -74 -37z" />
    <glyph glyph-name="uniE648" unicode="&#xe648;" horiz-adv-x="1025" 
d="M213 -128q-35 0 -60 25t-25 60.5t25 60.5t60 25q23 0 43 -11.5t31.5 -31.5t11.5 -43t-11.5 -42.5t-31.5 -31t-43 -11.5zM213.5 0q-17.5 0 -30 -12.5t-12.5 -30t12.5 -30t29.5 -12.5q12 0 22 5.5t15.5 15.5t5.5 21q0 18 -12.5 30.5t-30 12.5zM683 -128q-18 0 -33.5 7
t-27 18t-18.5 27t-7 33q0 36 25 61t61 25q17 0 33 -7t27 -18.5t18 -27t7 -33.5q0 -35 -25 -60t-60 -25zM683 0q-12 0 -22 -5.5t-15.5 -15.5t-5.5 -22q0 -17 12.5 -29.5t30.5 -12.5q11 0 21 5.5t15.5 15.5t5.5 21q0 18 -12.5 30.5t-29.5 12.5zM448 555q-4 0 -8 1.5t-7 4.5
t-4.5 7t-1.5 8v299q0 9 6 15t15 6q4 0 8 -1.5t7 -4.5t4.5 -7t1.5 -8v-299q0 -9 -6 -15t-15 -6zM448 555q-9 0 -15 6l-128 128q-6 6 -6 15t6 15q15 12 30 0l113 -113l113 113q6 6 15 6t15 -6q12 -15 0 -30l-128 -128q-3 -3 -7 -4.5t-8 -1.5zM683 0h-470q-5 0 -10 3t-8 8
t-3 10q0 9 6 15.5t15 6.5h453l167 709q3 16 20 16h150q9 0 15 -6t6 -15q0 -6 -3 -11t-8 -8t-10 -3h-133l-167 -709q-3 -16 -20 -16zM704 85h-555q-7 0 -12.5 4t-7.5 11l-128 384q-3 10 3 19t17 9h768q9 0 15.5 -6t6.5 -15t-6.5 -15.5t-15.5 -6.5h-738l114 -341h539
q9 0 15 -6t6 -15t-6 -15.5t-15 -6.5z" />
    <glyph glyph-name="uniE649" unicode="&#xe649;" 
d="M341 192h319v-43h-319v43zM611 21h177v-42h-177v42zM597 661h-85q-6 0 -11 3t-7.5 8t-2.5 11q0 9 6 15t15 6h85q9 0 15.5 -6t6.5 -15t-6.5 -15.5t-15.5 -6.5zM789 576h-234q-9 0 -15.5 6t-6.5 15t6.5 15.5t15.5 6.5h234q9 0 15.5 -6.5t6.5 -15.5t-6.5 -15t-15.5 -6z
M768 491h-277q-9 0 -15.5 6t-6.5 15q0 6 3 11t8 7.5t11 2.5h277q6 0 11 -2.5t7.5 -7.5t2.5 -11q0 -9 -6 -15t-15 -6zM789 405h-298q-9 0 -15.5 6.5t-6.5 15.5q0 4 2 8t4.5 7t6.5 4.5t9 1.5h298q5 0 9 -1.5t6.5 -4.5t4.5 -7t2 -8q0 -9 -6.5 -15.5t-15.5 -6.5zM747 320h-256
q-9 0 -15.5 6t-6.5 15t6.5 15.5t15.5 6.5h256q9 0 15 -6.5t6 -15.5t-6 -15t-15 -6zM768 235h-299q-9 0 -15 6t-6 15q0 4 1.5 8t4.5 7t7 4.5t8 1.5h299q9 0 15 -6t6 -15q0 -4 -1.5 -8t-4.5 -7t-7 -4.5t-8 -1.5zM428 896h532v-43h-532v43zM532 -107h-532v43q26 0 39 13
q9 9 14 29.5t5.5 36t0.5 44.5q-1 30 0 46.5t6.5 37t17.5 32.5q17 17 45 17h196q19 104 28.5 268t10 235.5t0.5 114.5q0 31 15.5 58.5t49.5 27.5v-43q-9 0 -15 -11.5t-7 -19.5t-1 -12q1 -50 0.5 -126t-11.5 -244t-32 -274l-3 -17h-231q-10 0 -15 -4q-12 -13 -12 -86
q1 -90 -19 -123h450q27 0 39 13q10 9 14.5 29.5t5 36t0.5 44.5q0 30 0.5 46.5t6 37t17.5 32.5q17 17 45 17q16 0 29 -4.5t22 -13.5t13.5 -23.5t5 -25t0.5 -29.5v-10v-11v-9l2 -10q0 -4 1.5 -8t3.5 -7.5t4 -6.5q7 -6 18.5 -9.5t28.5 -3.5q10 0 19 10q30 31 51 133t27.5 220
t10 238t-0.5 188q0 31 15.5 58.5t49.5 27.5q20 0 33.5 -17t19.5 -45.5t8.5 -54t2.5 -54.5v-21h-85q0 -94 -3.5 -185t-13 -203.5t-31 -197t-53.5 -117.5q-11 -11 -23.5 -16.5t-26.5 -5.5q-52 0 -77 25q-11 12 -17 29.5t-6.5 29.5t-0.5 33q0 41 -7 48q-1 2 -3.5 3t-5.5 1.5
t-5 0.5h-6q-10 0 -15 -4q-12 -13 -11 -86q0 -34 -1 -53t-8.5 -45.5t-23.5 -41.5q-12 -13 -29.5 -19.5t-39.5 -6.5zM939 747h42q-2 39 -8.5 70.5t-14.5 36.5q-5 0 -9 -5t-6 -10.5t-3.5 -12.5t-1.5 -11v-5q0 -27 1 -63z" />
    <glyph glyph-name="uniE64A" unicode="&#xe64a;" 
d="M725 384q-9 0 -15 6t-6 15v256q0 52 -25.5 96.5t-70 70t-96.5 25.5q-79 0 -135.5 -56t-56.5 -136v-256q0 -4 -1.5 -8t-4.5 -7t-7 -4.5t-8 -1.5q-9 0 -15.5 6t-6.5 15v256q0 97 69 166t166 69t166 -69t69 -166v-256q0 -9 -6.5 -15t-15.5 -6zM875 -128h-726q-61 0 -105 44
t-44 105v278q0 88 62.5 150.5t150.5 62.5h598q88 0 150.5 -62.5t62.5 -150.5v-278q0 -61 -44 -105t-105 -44zM213 469q-46 0 -85.5 -22.5t-62 -62t-22.5 -85.5v-278q0 -44 31 -75t75 -31h726q44 0 75 31t31 75v278q0 70 -50 120t-120 50h-598zM235 -128q-9 0 -15.5 6
t-6.5 15q0 52 -25.5 96.5t-70 70t-96.5 25.5q-9 0 -15 6.5t-6 15.5t6 15t15 6q97 0 166 -69t69 -166q0 -5 -3 -10t-8 -8t-10 -3zM789 -128q-3 0 -6.5 1t-6 3t-4.5 4.5t-3 6t-1 6.5q0 48 18.5 91.5t50 75t75 50t91.5 18.5q9 0 15 -6t6 -15q0 -5 -1.5 -9t-4.5 -6.5t-7 -4.5
t-8 -2q-80 0 -136 -56t-56 -136q0 -9 -6.5 -15t-15.5 -6zM917 256h-810q-9 0 -15.5 6t-6.5 15q0 4 1 7t3 6t5 5t6 3t7 1h810q9 0 15.5 -6.5t6.5 -15.5t-6.5 -15t-15.5 -6zM192 171q-6 0 -11 2.5t-7.5 7.5t-2.5 11v85q0 6 2.5 11t7.5 8t11 3q18 -5 21 -22v-85q0 -9 -6 -15
t-15 -6z" />
    <glyph glyph-name="uniE64B" unicode="&#xe64b;" 
d="M1002 256q-5 0 -9 2t-7 5.5t-5 8.5q0 2 -1 4.5t-3 8t-5.5 11t-8 12.5t-11.5 12.5t-15 10.5t-18.5 7.5t-22.5 2.5q-32 0 -60 -20t-36.5 -32.5t-12.5 -20.5q-6 -12 -19 -12h-4l-4 2q-2 0 -3.5 1t-3 2.5t-2.5 3t-2 3.5q-2 3 -5 8t-13 17.5t-22 22.5t-30.5 17.5t-38.5 7.5
t-38.5 -7.5t-30.5 -17.5t-22 -22.5t-13 -17.5t-5 -8q-3 -6 -9 -9t-12 -3q-15 2 -19 16q-9 35 -46 55q-26 14 -61 14q-18 0 -34 -3.5t-26.5 -9.5t-19 -14t-13.5 -14.5t-8.5 -13.5t-4.5 -9.5t-1 -4.5q-4 -16 -21 -16t-21 16q-1 4 -3 9t-10 16.5t-18.5 20.5t-30.5 16t-45 7
q-45 0 -67 -22q-18 -18 -18 -42q0 -8 -6 -14.5t-14.5 -6.5t-15 6t-6.5 14q-3 53 5 104t26 99t46 92t64 82q73 76 168.5 117t201.5 41t201.5 -41t168.5 -117.5t109.5 -173.5t31.5 -203q0 -8 -5.5 -13.5t-13.5 -6.5h-2zM640 384q75 -1 128 -68q53 68 128 68q47 0 82 -30
q-18 155 -127 269q-67 70 -154.5 107.5t-184.5 37.5t-184.5 -37.5t-154.5 -107.5q-106 -111 -126 -261q16 11 36 16.5t45 5.5q31 0 57 -9t42.5 -21.5t28.5 -29.5q44 60 128 60q87 0 131 -64q53 64 125 64zM512 768q-9 0 -15 6t-6 15v86q0 5 2.5 10t7.5 8t11 3q4 0 8 -1.5
t7 -4.5t4.5 -7t1.5 -8v-86q0 -3 -1 -6.5t-3 -6t-4.5 -4.5t-6 -3t-6.5 -1zM565 -112q-30 0 -52 18.5t-22 50.5v320q0 9 6 15.5t15 6.5q2 0 4.5 -0.5t4.5 -2t4 -2.5t3.5 -3t2.5 -4t1.5 -4.5t0.5 -5.5v-320q0 -7 3.5 -12.5t7 -8t9 -4t7.5 -1.5h5q5 0 10.5 1t13.5 7.5t8 17.5
q0 9 6.5 15.5t15.5 6.5q3 0 6.5 -1t6 -3t4.5 -5t3 -6t1 -7q0 -32 -22.5 -50.5t-52.5 -18.5z" />
    <glyph glyph-name="uniE64C" unicode="&#xe64c;" 
d="M533 -128h-4l-4 2q-2 0 -3 2l-4 2l-2 4q-2 1 -2 3l-2 4v4v171q0 6 3 11t7.5 7.5t10.5 2.5q5 0 9 -1.5t6.5 -4.5t4.5 -7t2 -8v-171q0 -9 -6.5 -15t-15.5 -6zM683 853h-299q-9 0 -15 6.5t-6 15.5t6 15t15 6h299q5 0 10 -3t8 -8t3 -10q0 -9 -6.5 -15.5t-14.5 -6.5zM469 512
h-85q-9 0 -15 6t-6 15t6 15.5t15 6.5h85q6 0 11 -3t8 -8t3 -11q0 -9 -6.5 -15t-15.5 -6zM469 427h-85q-9 0 -15 6t-6 15q0 4 1.5 8t4.5 7t7 4.5t8 1.5h85q3 0 5.5 -0.5t4.5 -1.5t3.5 -2.5l3.5 -3.5l2 -4q2 -2 2.5 -4.5t0.5 -4.5q0 -9 -6.5 -15t-15.5 -6zM469 341h-85
q-9 0 -15 6.5t-6 15.5q0 4 1.5 8t4.5 7t7 4.5t8 1.5h85q3 0 5.5 -0.5t4.5 -1.5t3.5 -2.5l3.5 -3.5l2 -4q2 -2 2.5 -4.5t0.5 -4.5q0 -9 -6.5 -15.5t-15.5 -6.5zM811 640h-555q-6 0 -11 3t-7.5 8t-2.5 10q0 9 6 15.5t15 6.5h555q8 0 14.5 -6.5t6.5 -15.5t-6.5 -15t-14.5 -6z
M448 875h43v-214h-43v214zM576 875h43v-214h-43v214zM533.5 43q-70.5 0 -120.5 56t-50 136v426h42v-426q0 -62 37.5 -106t90.5 -44t90.5 44t37.5 106v426h43v-426q0 -80 -50 -136t-120.5 -56z" />
    <glyph glyph-name="uniE64D" unicode="&#xe64d;" 
d="M811 299h-4q-8 1 -13.5 8.5t-3.5 15.5l40 260q5 34 0.5 67.5t-18.5 64.5t-36 56q-34 39 -80.5 60.5t-97.5 21.5h-172q-17 0 -33.5 -2.5t-32.5 -7t-31.5 -11.5t-29.5 -16t-27 -20.5t-24 -24.5q-33 -39 -47 -88t-7 -100l40 -260q1 -5 -1 -10.5t-6.5 -9t-9.5 -4.5t-9 0
t-7.5 3.5t-5.5 6t-3 8.5l-40 259q-6 41 -0.5 80t22 76t42.5 67q20 23 44 41t50.5 30.5t56 19t59.5 6.5h172q30 0 59.5 -6.5t56 -19t50.5 -30.5t44 -41q40 -46 56.5 -104t7.5 -118l-40 -260q-3 -18 -21 -18zM256 -128q-2 0 -4.5 0.5t-4.5 1.5t-4 2.5t-3.5 3.5t-2.5 4
t-1.5 4.5t-0.5 4.5v43q0 9 6 15t15 6q18 -4 21 -21v-43q0 -9 -6 -15t-15 -6zM768 -128q-3 0 -6.5 1t-6 3t-4.5 4.5t-3 6t-1 6.5v43q0 9 6 15t15 6t15 -6t6 -15v-43q0 -9 -6 -15t-15 -6zM789 -85h-554q-62 0 -106 43.5t-44 105.5v85q0 22 -19 30q-30 12 -48 39t-18 59
q0 44 31.5 75.5t75.5 31.5q46 0 85.5 -23t62 -62t22.5 -86v-31q88 31 235 31t235 -31v31q0 71 50 121t120 50q44 0 75.5 -31.5t31.5 -75.5q0 -21 -8 -40.5t-23 -34.5t-35 -23q-4 -2 -7.5 -5t-6.5 -7t-4 -8.5t-1 -9.5v-85q0 -62 -44 -105.5t-106 -43.5zM107 341
q-27 0 -45.5 -18.5t-18.5 -45.5q0 -19 10.5 -35t28.5 -24q14 -6 24.5 -16t16 -24t5.5 -29v-85q0 -44 31.5 -75.5t75.5 -31.5h554q44 0 75.5 31.5t31.5 75.5v85q0 9 2 18t6 16.5t9.5 14t13 12t15.5 8.5q18 8 28.5 24t10.5 35q0 13 -5 25t-13.5 20.5t-20.5 13.5t-25 5
q-53 0 -90.5 -37.5t-37.5 -90.5v-104l-33 23l-8 4q-6 3 -26 9.5t-46 11.5t-69.5 9.5t-94.5 4.5q-80 0 -142.5 -11t-79 -17.5t-22.5 -11.5l-33 -20v102q0 18 -5 34.5t-13 30.5t-20 26t-26 20t-30.5 12.5t-33.5 4.5zM619 448q-5 0 -8.5 1.5t-6.5 4.5l-43 43q-6 6 -6 15t6 15
l43 43q6 6 14.5 6t15.5 -6q12 -16 0 -30l-28 -28l28 -28q6 -6 6 -14.5t-6.5 -15t-14.5 -6.5zM405.5 448q-8.5 0 -15 6.5t-6.5 15t6 14.5l28 28l-28 28q-6 6 -6 14.5t6 15.5q16 12 30 0l43 -43q6 -6 6 -15t-6 -15l-43 -43q-6 -6 -14.5 -6zM512 427q-35 0 -60 25t-25 60t25 60
t60 25q23 0 42.5 -11.5t31 -31t11.5 -42.5q0 -12 -3 -23t-8.5 -20t-13.5 -17t-17 -13.5t-20 -8.5t-23 -3zM512 555q-12 0 -21.5 -6t-15.5 -15.5t-6 -21.5q0 -18 12.5 -30.5t30.5 -12.5q7 0 13.5 2.5t11.5 6.5t9 9t6.5 11.5t2.5 13.5q0 9 -3.5 16.5t-9.5 13.5t-13.5 9.5
t-16.5 3.5z" />
    <glyph glyph-name="uniE64E" unicode="&#xe64e;" 
d="M768 384h-85v43h85q9 0 15 6t6 15v256q0 17 -8.5 32t-23 23.5t-32.5 8.5h-469q-26 0 -45 -19t-19 -45v-256q0 -4 1.5 -8t4.5 -7t7 -4.5t8 -1.5h86v-43h-86q-17 0 -32 8.5t-23.5 23.5t-8.5 32v256q0 44 31.5 75.5t75.5 31.5h469q44 0 75.5 -31.5t31.5 -75.5v-256
q0 -26 -19 -45t-45 -19zM704 768h-128q-9 0 -15 6t-6 15v86q0 9 6 15t15 6h128q9 0 15 -6t6 -15v-86q0 -5 -2.5 -10t-7.5 -8t-11 -3zM597 811h86v42h-86v-42zM405 768h-128q-9 0 -15 6t-6 15v86q0 9 6 15t15 6h128q9 0 15.5 -6t6.5 -15v-86q0 -9 -6.5 -15t-15.5 -6zM299 811
h85v42h-85v-42zM213 43h-128q-9 0 -15 6t-6 15v64q0 35 25 60t60 25h64q9 0 15.5 -6t6.5 -15v-128q0 -9 -6.5 -15t-15.5 -6zM107 85h85v86h-43q-17 0 -29.5 -12.5t-12.5 -30.5v-43zM213 -128h-85q-26 0 -45 19t-19 45v128q0 3 1 6l2 4q1 3 3 5t4.5 3.5t5 2t5.5 0.5h128
q9 0 15.5 -6t6.5 -15v-171q0 -9 -6.5 -15t-15.5 -6zM107 43v-107q0 -9 6 -15t15 -6h64v128h-85zM896 43h-128q-9 0 -15 6t-6 15v128q0 9 6 15t15 6h64q35 0 60 -25t25 -60v-64q0 -9 -6 -15t-15 -6zM789 85h86v43q0 7 -2.5 13.5t-6.5 11.5t-9 9t-11.5 6.5t-13.5 2.5h-43v-86z
M853 -128h-85q-9 0 -15 6t-6 15v171q0 6 2.5 11t7.5 7.5t11 2.5h128q9 0 15 -6t6 -15v-128q0 -26 -18.5 -45t-45.5 -19zM789 -85h64q9 0 15.5 6t6.5 15v107h-86v-128zM683 43h-384q-9 0 -15.5 6t-6.5 15v64q0 35 25 60t61 25h256q23 0 42.5 -11.5t31 -31t11.5 -42.5v-64
q0 -4 -1.5 -8t-4.5 -7t-7 -4.5t-8 -1.5zM320 85h341v43q0 12 -5.5 21.5t-15.5 15.5t-21 6h-256q-18 0 -30.5 -12.5t-12.5 -30.5v-43zM341 277q-10 0 -20 3.5t-17.5 9.5t-13.5 13.5t-9.5 17.5t-3.5 20v107q0 26 19 45t45 19q13 0 25 -5t20.5 -13.5t13.5 -20.5t5 -25v-107
q0 -8 -2 -16.5t-6.5 -15.5t-10 -13t-12.5 -10t-15.5 -6.5t-17.5 -2.5zM341.5 469q-8.5 0 -15 -6t-6.5 -15v-107q0 -8 6.5 -14.5t15 -6.5t15 6.5t6.5 14.5v107q0 9 -6.5 15t-15 6zM640 277q-26 0 -45 19t-19 45v107q0 26 19 45t45 19t45 -19t19 -45v-107q0 -13 -5 -24.5
t-13.5 -20.5t-20.5 -14t-25 -5zM640 469q-9 0 -15 -6t-6 -15v-107q0 -5 2.5 -10t7.5 -8t11 -3q9 0 15 6.5t6 14.5v107q0 4 -1.5 8t-4.5 7t-7 4.5t-8 1.5zM725 683h-469q-9 0 -15 6t-6 15q0 6 2.5 11t7.5 7.5t11 2.5h469q9 0 15.5 -6t6.5 -15t-6.5 -15t-15.5 -6zM299 640
q-9 0 -15.5 6t-6.5 15v43q0 9 6.5 15t15.5 6q2 0 4.5 -0.5t4.5 -1.5t4 -2.5t3.5 -3.5t2.5 -4t1.5 -4.5t0.5 -4.5v-43q0 -4 -1.5 -8t-4.5 -7t-7 -4.5t-8 -1.5zM384 0q-4 0 -8 1.5t-7 4.5t-4.5 7t-1.5 8v86q0 4 1.5 8t4.5 7t7 4.5t8 1.5h4l4 -2q2 0 4 -1.5t3.5 -3t2.5 -3
t2 -3.5v-4q1 -2 1 -4v-86q0 -9 -6 -15t-15 -6zM597 0q-9 0 -15 6t-6 15v86q0 9 6 15t15 6q6 0 11 -3t8 -8t3 -10v-86q0 -9 -6.5 -15t-15.5 -6zM384 427h213v-43h-213v43zM213 171q-5 0 -10 2.5t-8 7.5t-3 11v213q0 5 1.5 9t4.5 6.5t7 4.5t8 2q9 0 15.5 -6.5t6.5 -15.5v-213
q0 -9 -6.5 -15t-15.5 -6zM768 171q-9 0 -15 6t-6 15v213q0 9 6 15.5t15 6.5q3 0 5.5 -1t5 -2.5t4.5 -3.5t3.5 -4t2 -5t0.5 -6v-213q0 -9 -6 -15t-15 -6zM768 -128h-555q-4 0 -8 1.5t-7 4.5t-4.5 7t-1.5 8q0 9 6 15.5t15 6.5h555q9 0 15 -6.5t6 -15.5t-6 -15t-15 -6z
M683 -128q-9 0 -15.5 6t-6.5 15v150h-341v-150q0 -9 -6 -15t-15 -6t-15.5 6t-6.5 15v171q0 9 6.5 15t15.5 6h384q4 0 8 -1.5t7 -4.5t4.5 -7t1.5 -8v-171q0 -9 -6 -15t-15 -6z" />
    <glyph glyph-name="uniE64F" unicode="&#xe64f;" 
d="M811 213h-598q-43 0 -82.5 17t-68 45.5t-45.5 68t-17 83.5q0 9 6 15t15 6t15.5 -6t6.5 -15q0 -47 22.5 -86t62 -62t85.5 -23h598q70 0 120 50t50 121q0 3 1 5.5t2.5 5t3.5 4.5t4 3t5 2t6 1q5 0 10 -3t8 -8t3 -10q0 -89 -62.5 -151.5t-150.5 -62.5zM832 341h-640
q-9 0 -15 6.5t-6 15.5q0 4 1.5 8t4.5 7t7 4.5t8 1.5h640q9 0 15 -6t6 -15q0 -5 -1.5 -9t-4.5 -6.5t-7 -4.5t-8 -2zM853 236h-42v319q0 123 -87.5 210.5t-211.5 87.5q-125 0 -213 -89q-85 -88 -86 -209v-319h-42v319q0 92 45.5 171t124 124.5t171.5 45.5t171.5 -45.5
t124 -124.5t45.5 -171v-319zM576 -43h-128l-43 -85h214z" />
    <glyph glyph-name="uniE650" unicode="&#xe650;" 
d="M533 256q-4 0 -8 1.5t-7 4.5l-341 342q-5 4 -6 10.5t1 12.5q6 13 20 13h683q14 0 19 -13q3 -6 1.5 -12.5t-5.5 -10.5l-342 -342q-6 -6 -15 -6zM243 597l290 -290l290 290h-580zM533 -128q-9 0 -15 6t-6 15v384q0 9 6 15.5t15 6.5q3 0 6 -1t5 -2.5t4 -3.5t3.5 -4t2.5 -5
t1 -6v-384q0 -9 -6.5 -15t-15.5 -6zM704 -128h-341q-9 0 -15.5 6t-6.5 15q0 3 1 6t2.5 5t3.5 4t4 3.5t5 2.5t6 1h341q9 0 15 -6.5t6 -15.5t-6 -15t-15 -6zM305 604l-112 111q-31 32 -75 32h-118v42h118q15 0 29 -2.5t27.5 -8.5t26 -14t22.5 -18l112 -112zM875 512
q-11 0 -21 1.5t-20 4t-19 6.5t-18 10l22 36q13 -7 27 -11t29 -4q44 0 75 31t31 75q0 29 -14 53.5t-38.5 39t-53.5 14.5t-53.5 -14.5t-39 -39t-14.5 -53.5q0 -9 1.5 -18t4.5 -17l-40 -14q-9 24 -9 49q0 62 44 106t105.5 44t105.5 -44t44 -105.5t-44 -105.5t-105 -44z" />
    <glyph glyph-name="uniE651" unicode="&#xe651;" 
d="M896 853q23 0 42.5 -11.5t31 -31t11.5 -42.5v-768q0 -14 -4 -27t-12 -23.5t-18.5 -18.5t-23.5 -12t-27 -4h-768q-35 0 -60 25t-25 60v768q0 35 25 60t60 25h768zM896 896h-768q-53 0 -90.5 -37.5t-37.5 -90.5v-768q0 -53 37.5 -90.5t90.5 -37.5h768q53 0 90.5 37.5
t37.5 90.5v768q0 53 -37.5 90.5t-90.5 37.5zM512 725q93 0 171.5 -45.5t124 -124t45.5 -171.5q0 -69 -27 -132.5t-72.5 -109t-109 -72.5t-132.5 -27q-28 0 -55.5 4.5t-52.5 13t-48.5 20.5t-44.5 27.5t-40 34.5t-34.5 40t-27.5 44.5t-20.5 48.5t-13 52.5t-4.5 55.5
q0 93 45.5 171.5t124 124t171.5 45.5zM512 768q-159 0 -271.5 -112.5t-112.5 -271.5t112.5 -271.5t271.5 -112.5t271.5 112.5t112.5 271.5t-112.5 271.5t-271.5 112.5zM640 363h-149v234q0 9 6 15.5t15 6.5t15 -6.5t6 -15.5v-192h107q9 0 15 -6t6 -15t-6 -15t-15 -6z" />
    <glyph glyph-name="uniE652" unicode="&#xe652;" 
d="M512 -128q-104 0 -199 40.5t-163.5 109t-109 163.5t-40.5 199t40.5 199t109 163.5t163.5 109t199 40.5t199 -40.5t163.5 -109t109 -163.5t40.5 -199t-40.5 -199t-109 -163.5t-163.5 -109t-199 -40.5zM512 853q-95 0 -182 -37t-150 -100t-100 -150t-37 -182t37 -182
t100 -150t150 -100t182 -37t182 37t150 100t100 150t37 182t-37 182t-100 150t-150 100t-182 37zM512 299q-35 0 -60 25t-25 60t25 60t60 25t60 -25t25 -60q0 -12 -3 -23t-8.5 -20t-13.5 -17t-17 -13.5t-20 -8.5t-23 -3zM512 427q-12 0 -21.5 -6t-15.5 -15.5t-6 -21.5
t6 -21.5t15.5 -15.5t21.5 -6q18 0 30.5 12.5t12.5 30.5q0 12 -6 21.5t-15.5 15.5t-21.5 6zM557 408q-2 0 -5 0.5t-5.5 2t-4.5 3.5q-6 6 -6 15t6 15l211 212q7 6 15.5 6t15.5 -6q12 -16 0 -31l-212 -211q-6 -6 -15 -6zM192 363h-85q-9 0 -15.5 6t-6.5 15t6.5 15t15.5 6h85
q6 0 11 -2.5t7.5 -7.5t2.5 -11q0 -9 -6 -15t-15 -6zM138 208q-15 0 -20 13q-2 5 -1.5 10.5t4 10t8.5 7.5l79 32q8 4 16.5 0.5t11.5 -11.5t0 -16.5t-11 -11.5l-79 -33q-4 -1 -8 -1zM886 208q-4 0 -8 1l-79 33q-4 2 -7 5t-4.5 6.5t-1.5 8t2 8.5q3 8 11.5 11.5t16.5 -0.5
l79 -32q5 -3 8.5 -7.5t4 -10t-1.5 -10.5q-5 -13 -20 -13zM917 363h-85q-9 0 -15 6t-6 15t6 15t15 6h85q3 0 5.5 -0.5t4.5 -1.5t4 -2.5t3 -3.5t2.5 -4t2 -4.5t0.5 -4.5q0 -9 -6.5 -15t-15.5 -6zM808 485q-7 0 -12.5 3.5t-7.5 9.5q-3 8 0 16.5t11 11.5l79 33q8 3 16.5 -0.5
t12 -11.5t0 -16t-11.5 -12l-79 -32zM634 658l-8 2q-8 3 -11.5 11.5t0.5 16.5l32 79q2 4 5 7t7 4.5t8 1.5t8 -2q8 -3 11.5 -11.5t0.5 -16.5l-33 -79q-2 -6 -7.5 -9.5t-12.5 -3.5zM512 683q-9 0 -15 6t-6 15v85q0 6 2.5 11t7.5 8t11 3q3 0 5 -0.5t4.5 -2t4 -2.5t3 -3t2.5 -4
t1.5 -4.5t0.5 -5.5v-85q0 -9 -6 -15t-15 -6zM390 658q-15 0 -20 13l-33 79q-3 8 0.5 16.5t11.5 12t16 0t12 -11.5l32 -79q4 -8 0.5 -16.5t-11.5 -11.5zM286 589q-9 0 -15 6l-61 61q-2 2 -3.5 4.5t-2 5t-0.5 5t0.5 5.5t2 5.5t3.5 4.5q7 6 15.5 6t15.5 -6l60 -61q3 -3 4.5 -7
t1.5 -8t-1.5 -8t-4.5 -7q-6 -6 -15 -6zM216 485q-2 0 -4 0.5t-4 1.5l-79 32q-5 3 -8.5 7.5t-4 10t1.5 10.5q3 8 11.5 11.5t16.5 0.5l79 -33q5 -2 8.5 -6.5t4 -10t-1.5 -11.5q-5 -13 -20 -13zM704 43h-384q-18 4 -21 21v128q0 3 1 6.5t3 6t4.5 4.5t6 3t6.5 1h384q9 0 15 -6
t6 -15v-128q0 -9 -6 -15t-15 -6zM341 85h342v86h-342v-86z" />
    <glyph glyph-name="uniE653" unicode="&#xe653;" 
d="M939 -128h-854q-17 0 -33 7t-27 18t-18 27t-7 33v854q0 35 25 60t60 25h854q23 0 42.5 -11.5t31 -31t11.5 -42.5v-854q0 -35 -25 -60t-60 -25zM85 853q-17 0 -29.5 -12.5t-12.5 -29.5v-854q0 -7 2 -13.5t6 -11.5t9 -9t11.5 -6t13.5 -2h854q11 0 21 5.5t15.5 15.5t5.5 21
v854q0 11 -5.5 21t-15.5 15.5t-21 5.5h-854zM512 256q-18 5 -21 21v299q0 9 6 15t15 6q6 0 11 -2.5t7.5 -7.5t2.5 -11v-299q0 -9 -6 -15t-15 -6zM725 256q-9 0 -15 6t-6 15v86q0 9 6 15t15 6t15.5 -6t6.5 -15v-86q0 -9 -6.5 -15t-15.5 -6zM299 512q-9 0 -15.5 6t-6.5 15v214
q0 9 6.5 15t15.5 6q5 0 10 -3t8 -8t3 -10v-214q0 -9 -6 -15t-15 -6zM299 256q-3 0 -5.5 0.5t-4.5 1.5t-4 2.5t-3 3.5t-2.5 4t-2 4.5t-0.5 4.5v171q0 4 2 8t4.5 7t6.5 4.5t9 1.5q9 0 15 -6t6 -15v-171q0 -5 -3 -10t-8 -8t-10 -3zM725 427q-9 0 -15 6t-6 15v299q0 9 6 15t15 6
t15.5 -6t6.5 -15v-299q0 -3 -1 -6.5t-3 -6t-5 -4.5t-6 -3t-7 -1zM512 640q-6 0 -11 3t-7.5 8t-2.5 10v86q0 9 6 15t15 6q6 0 11 -3t7.5 -8t2.5 -10v-86q0 -9 -6 -15t-15 -6zM789 341h-128q-5 0 -10 3t-8 8t-3 11v85q0 9 6 15t15 6h128q9 0 15.5 -6t6.5 -15v-85q0 -3 -1 -6
t-2.5 -5t-3.5 -4t-4 -3.5t-5 -2.5t-6 -1zM683 384h85v43h-85v-43zM576 555h-128q-6 0 -11 2.5t-7.5 7.5t-2.5 11v85q0 9 6 15.5t15 6.5h128q9 0 15 -6.5t6 -15.5v-85q0 -9 -6 -15t-15 -6zM469 597h86v43h-86v-43zM363 427h-128q-9 0 -15.5 6t-6.5 15v85q0 9 6.5 15.5
t15.5 6.5h128q9 0 15 -6.5t6 -15.5v-85q0 -4 -1.5 -8t-4.5 -7t-7 -4.5t-8 -1.5zM256 469h85v43h-85v-43zM725.5 0q-35.5 0 -60.5 25t-25 60q0 23 11.5 43t31 31.5t42.5 11.5q18 0 33.5 -7t27 -18.5t18.5 -27t7 -33.5q0 -35 -25 -60t-60.5 -25zM725.5 128q-11.5 0 -21.5 -5.5
t-15.5 -15.5t-5.5 -21.5t5.5 -21.5t15.5 -15.5t21.5 -5.5t21.5 5.5t15.5 15.5t5.5 21.5t-5.5 21.5t-15.5 15.5t-21.5 5.5zM512 0q-35 0 -60 25t-25 60q0 23 11.5 43t31 31.5t42.5 11.5q17 0 33 -7t27.5 -18.5t18 -27t6.5 -33.5q0 -23 -11.5 -42.5t-31 -31t-42.5 -11.5z
M512 128q-6 0 -11.5 -1.5t-10 -4.5t-8.5 -6.5t-7 -8.5t-4.5 -10.5t-1.5 -11.5q0 -17 12.5 -29.5t30.5 -12.5q12 0 21.5 5.5t15.5 15.5t6 21.5t-6 21.5t-15.5 15.5t-21.5 5.5zM298.5 0q-35.5 0 -60.5 25t-25 60q0 23 11.5 43t31.5 31.5t43 11.5q17 0 33 -7t27 -18.5t18 -27
t7 -33.5q0 -35 -25 -60t-60.5 -25zM299 128q-18 0 -30.5 -12.5t-12.5 -30.5q0 -7 2 -13.5t6 -11.5t9.5 -9t12 -6t13.5 -2q17 0 29.5 12.5t12.5 29.5q0 12 -5.5 22t-15.5 15.5t-21 5.5z" />
    <glyph glyph-name="uniE654" unicode="&#xe654;" 
d="M555 -128h-86q-13 0 -24.5 5t-20.5 13.5t-14 20.5t-5 25v79q-41 12 -78 33l-56 -56q-19 -18 -46 -18t-45 18l-60 60q-3 2 -5 4.5t-3.5 5t-3 5.5t-2.5 6l-2 6l-2 6v6q-1 3 -1 6q0 27 19 46l56 56q-21 37 -33 78h-79q-26 0 -45 19t-19 45v86v6l2 6q0 3 1 6l2 6q1 3 2.5 6
t3 5.5t3.5 5t5 4.5q9 9 20.5 14t24.5 5h79q12 41 33 78l-56 56q-19 19 -19 45.5t19 45.5l60 60q9 9 21 13.5t24.5 4.5t24.5 -4.5t21 -13.5l56 -56q12 7 25 13t26.5 11t26.5 9v79q0 26 19 45t45 19h86q7 0 14 -1.5t13.5 -5t12 -7.5t10 -10t7.5 -12t5 -13.5t2 -14.5v-79
q20 -6 39.5 -14.5t38.5 -18.5l56 56q12 12 29 16.5t33.5 0t28.5 -16.5l60 -60q19 -19 19 -45.5t-19 -45.5l-56 -56q10 -18 18.5 -38t14.5 -40h79q17 0 32 -8.5t23.5 -23.5t8.5 -32v-86q0 -26 -18.5 -45t-45.5 -19h-79q-6 -20 -14.5 -39.5t-18.5 -38.5l56 -56
q19 -19 19 -45.5t-19 -45.5l-60 -60q-18 -18 -45.5 -18t-45.5 18l-56 56q-18 -10 -38 -18.5t-40 -14.5v-79q0 -26 -19 -45t-45 -19zM323 96l11 -3q46 -28 98 -40q4 -2 8 -5t6 -7t2 -9v-96q0 -4 1.5 -8t4.5 -7t7 -4.5t8 -1.5h86q4 0 8 1.5t7 4.5t4.5 7t1.5 8v96q0 17 16 21
q52 12 98 40q6 4 13 3t13 -6l68 -68q6 -6 15 -6t15 6l60 60q6 7 6 15.5t-6 14.5l-68 68q-5 6 -6 13t3 14q28 45 40 97q1 3 3 6t5 5.5t6.5 3.5t6.5 1h96q9 0 15 6t6 15v86q0 9 -6 15t-15 6h-96q-3 0 -6.5 1t-6.5 3.5t-5 5.5t-3 6q-12 52 -40 98q-4 6 -3 13.5t6 12.5l68 68
q6 6 6 15q0 2 -0.5 5t-2 5.5t-3.5 4.5l-60 60q-3 2 -6 3.5t-6 2t-6.5 0t-6.5 -2t-5 -3.5l-68 -68q-6 -5 -13 -6t-14 3q-45 28 -97 40q-7 2 -11.5 8t-4.5 13v96q0 9 -6.5 15t-14.5 6h-86q-8 0 -14.5 -6t-6.5 -15v-96q0 -7 -4.5 -13t-11.5 -8q-52 -12 -98 -40q-14 -9 -26 3
l-68 68q-6 6 -15 6t-15 -6l-60 -60q-4 -4 -5.5 -9.5t0 -11t5.5 -9.5l68 -68q12 -12 3 -26q-28 -46 -40 -98q-4 -16 -21 -16h-96q-9 0 -15 -6t-6 -15v-86q0 -8 6 -14.5t15 -6.5h96q5 0 9 -2t7 -6t5 -8q4 -17 10 -34t13.5 -32.5t16.5 -30.5t-3 -27l-68 -68q-2 -2 -3.5 -4
t-2 -5t-0.5 -6q0 -4 1.5 -8t4.5 -7l60 -60q4 -4 9.5 -5.5t11.5 0t9 5.5l68 68q6 6 15 6zM512 171q-88 0 -150.5 62.5t-62.5 150.5t62.5 150.5t150.5 62.5t150.5 -62.5t62.5 -150.5q0 -58 -28.5 -107t-77.5 -77.5t-107 -28.5zM512 555q-71 0 -121 -50t-50 -121t50 -121
t121 -50t121 50t50 121q0 46 -23 85.5t-62.5 62.5t-85.5 23z" />
    <glyph glyph-name="uniE655" unicode="&#xe655;" 
d="M235 -85q-39 0 -75 15q-11 4 -13 15q-1 6 0.5 11t5.5 9l75 75v60h-60l-75 -75q-8 -8 -19.5 -6t-15.5 13q-15 36 -15.5 74t14 73.5t42.5 62.5q56 57 135 57q8 0 16 -1t15.5 -2t15 -3t15.5 -4l311 311q-8 26 -9.5 52.5t4.5 52t19 49.5t32 43q14 14 29.5 24.5t33 17.5
t36 10.5t37.5 3.5q39 0 75 -15q5 -2 8.5 -6t4.5 -9.5t-0.5 -10.5t-5.5 -9l-75 -75v-61h60l75 76q4 4 9 5.5t10 0.5q12 -2 16 -13q23 -54 12 -111.5t-53 -99.5q-18 -18 -40 -30.5t-46 -19t-50 -6.5q-31 0 -61 10l-311 -311q17 -52 4.5 -105t-51.5 -92q-56 -56 -135 -56z
M208 -40q13 -3 27 -3q62 0 105 44q33 32 41.5 77t-9.5 87q-6 13 5 23l331 331q10 10 23 5q28 -12 58 -12q62 0 106 44q26 26 37 61t4 71l-56 -57q-3 -3 -7 -4.5t-8 -1.5h-91q-9 0 -15 6t-6 15v91q0 4 1.5 8t4.5 7l57 56q-7 1 -13.5 1.5t-13.5 0.5q-20 0 -38.5 -5
t-35.5 -14.5t-31 -23.5q-33 -33 -41.5 -77.5t9.5 -86.5q5 -13 -5 -23l-331 -331q-10 -11 -23 -5q-28 12 -59 12q-61 0 -105 -44q-26 -26 -37 -61t-4 -71l56 57q6 6 15 6h91q17 0 20 -17q1 -2 1 -4v-91q0 -9 -6 -15zM896 -85q-35 0 -60 25l-196 196q-5 4 -6 9.5t0 11t6 9.5
l90 90q6 7 15 7t15 -7l196 -196q25 -25 25 -60t-25 -60t-60 -25zM685 151l181 -181q8 -8 19 -11t22 0t19 11q13 12 13 30t-13 30l-181 181zM230 696l243 -243l-30 -30l-243 243zM609 84q-2 0 -4 0.5t-4 1.5t-3.5 2t-3.5 3q-6 6 -6 14.5t6 15.5l181 181q7 6 15.5 6t14.5 -6
q12 -16 0 -30l-181 -181q-2 -3 -4 -4l-6 -2q-2 -1 -5 -1zM185 630q-9 0 -15 6l-121 121q-6 6 -6 15q0 2 0.5 5t2 5.5t3.5 4.5l60 60q7 6 15.5 6t14.5 -6l121 -121q6 -6 6 -15q0 -4 -1.5 -8t-4.5 -7l-60 -60q-2 -2 -3.5 -3t-3.5 -2t-4 -1h-4zM94 772l91 -91l30 30l-91 91z
M564 362l156 -156l-30 -30l-156 156z" />
    <glyph glyph-name="uniE656" unicode="&#xe656;" 
d="M512 469q-88 0 -167 15t-136 40.5t-90.5 61.5t-33.5 75q0 53 56.5 97.5t154.5 69.5t216 25t216 -25t154.5 -69.5t56.5 -97.5t-56.5 -97t-154.5 -69.5t-216 -25.5zM512 811q-92 0 -179.5 -18.5t-146 -54t-58.5 -77.5t58.5 -77t146 -53.5t179.5 -18.5q68 0 136.5 11
t123.5 30.5t89.5 48t34.5 60t-34.5 60t-89.5 47.5t-123.5 30.5t-136.5 11.5zM512 299q-118 0 -216 25t-154.5 69.5t-56.5 97.5v170q0 9 6.5 15.5t15.5 6.5q5 0 10 -3t8 -8t3 -11v-170q0 -42 58.5 -77.5t146 -54t179.5 -18.5q68 0 136.5 11.5t123.5 30.5t89.5 47.5t34.5 60.5
v170q0 6 3 11t8 8t10.5 3t10.5 -3t8 -8t3 -11v-170q0 -32 -21.5 -61.5t-60.5 -53t-91.5 -41t-117.5 -27t-136 -9.5zM512 107q-118 0 -216 25t-154.5 69.5t-56.5 97.5v192q0 9 6.5 15t15.5 6q3 0 5 -1l6 -2q2 -1 4 -3t3 -4l2 -6q1 -2 1 -5v-192q0 -32 34.5 -60.5t89.5 -47.5
t123.5 -30.5t136.5 -11.5t136.5 11.5t123.5 30.5t89.5 47.5t34.5 60.5v192q0 5 3 10t8 8t10 3q9 0 15.5 -6t6.5 -15v-192q0 -40 -33.5 -75.5t-90.5 -61t-136 -40.5t-167 -15zM512 -85q-118 0 -216 25t-154.5 69.5t-56.5 97.5v192q0 9 6.5 15t15.5 6q3 0 5 -1l6 -2q2 -1 4 -3
t3 -4l2 -6q1 -2 1 -5v-192q0 -42 58.5 -77.5t146 -54t179.5 -18.5q68 0 136.5 11.5t123.5 30.5t89.5 47.5t34.5 60.5v192q0 5 3 10t8 8t10 3q9 0 15.5 -6t6.5 -15v-192q0 -40 -33.5 -75.5t-90.5 -61t-136 -40.5t-167 -15z" />
    </font>
</defs>
</svg>
